<svg xmlns="http://www.w3.org/2000/svg" xmlns:xlink="http://www.w3.org/1999/xlink" width="500" zoomAndPan="magnify" viewBox="0 0 375 374.999991" height="500" preserveAspectRatio="xMidYMid meet" version="1.0"><defs><g/><clipPath id="8b48479622"><path d="M 121 93.628906 L 252 93.628906 L 252 226.378906 L 121 226.378906 Z M 121 93.628906 " clip-rule="nonzero"/></clipPath><clipPath id="afaaff8acc"><path d="M 75.757812 139 L 299.257812 139 L 299.257812 205 L 75.757812 205 Z M 75.757812 139 " clip-rule="nonzero"/></clipPath></defs><rect x="-37.5" width="450" fill="#ffffff" y="-37.499999" height="449.999989" fill-opacity="1"/><rect x="-37.5" width="450" fill="#ffffff" y="-37.499999" height="449.999989" fill-opacity="1"/><rect x="-37.5" width="450" fill="#ffffff" y="-37.499999" height="449.999989" fill-opacity="1"/><g fill="#000000" fill-opacity="1"><g transform="translate(123.594621, 264.335109)"><g><path d="M 8.316406 -8.195312 C 12.460938 -8.195312 15.097656 -10.558594 15.097656 -14.855469 C 15.097656 -18.414062 13.320312 -21.667969 8.316406 -21.667969 L 3.714844 -21.667969 C 3.007812 -21.667969 2.425781 -21.085938 2.425781 -20.378906 L 2.425781 -0.796875 C 2.425781 -0.183594 2.914062 0.277344 3.4375 0.277344 C 4.019531 0.277344 4.449219 -0.214844 4.449219 -0.796875 L 4.449219 -8.195312 Z M 4.449219 -19.703125 L 8.316406 -19.703125 C 12.183594 -19.703125 13.074219 -17.277344 13.074219 -14.882812 C 13.074219 -11.664062 11.449219 -10.160156 8.316406 -10.160156 L 4.449219 -10.160156 Z M 4.449219 -19.703125 "/></g></g></g><g fill="#000000" fill-opacity="1"><g transform="translate(139.854832, 264.335109)"><g><path d="M 15.683594 -15.621094 C 15.683594 -18.628906 14.085938 -21.667969 9.085938 -21.667969 L 3.621094 -21.667969 C 2.976562 -21.667969 2.394531 -21.085938 2.394531 -20.378906 L 2.394531 -0.796875 C 2.394531 -0.183594 2.886719 0.277344 3.40625 0.277344 C 3.988281 0.277344 4.449219 -0.214844 4.449219 -0.796875 L 4.449219 -9.757812 L 8.441406 -9.757812 L 14.054688 -0.214844 C 14.238281 0.0625 14.546875 0.246094 14.882812 0.246094 C 15.285156 0.246094 15.988281 -0.152344 15.988281 -0.675781 C 15.988281 -0.921875 15.929688 -1.167969 15.867188 -1.320312 L 15.898438 -1.289062 L 10.710938 -9.820312 C 13.75 -10.433594 15.683594 -12.429688 15.683594 -15.621094 Z M 13.625 -15.621094 C 13.625 -13.042969 12.0625 -11.691406 9.144531 -11.691406 L 4.449219 -11.691406 L 4.449219 -19.703125 L 8.960938 -19.703125 C 12.796875 -19.703125 13.625 -17.585938 13.625 -15.621094 Z M 13.625 -15.621094 "/></g></g></g><g fill="#000000" fill-opacity="1"><g transform="translate(157.495624, 264.335109)"><g><path d="M 8.53125 0.277344 C 13.164062 0.277344 15.5 -3.160156 15.5 -7.488281 L 15.5 -14.210938 C 15.5 -18.445312 13.503906 -21.972656 8.53125 -21.972656 C 3.5 -21.972656 1.535156 -18.445312 1.535156 -14.210938 L 1.535156 -7.488281 C 1.535156 -3.160156 3.898438 0.277344 8.53125 0.277344 Z M 8.53125 -20.011719 C 12.121094 -20.011719 13.441406 -17.675781 13.441406 -14.210938 L 13.441406 -7.488281 C 13.441406 -4.082031 11.90625 -1.6875 8.53125 -1.6875 C 5.15625 -1.6875 3.589844 -4.082031 3.589844 -7.488281 L 3.589844 -14.210938 C 3.589844 -17.675781 4.878906 -20.011719 8.53125 -20.011719 Z M 8.53125 -20.011719 "/></g></g></g><g fill="#000000" fill-opacity="1"><g transform="translate(174.400103, 264.335109)"><g><path d="M 9.484375 -20.960938 C 9.484375 -21.484375 8.992188 -21.972656 8.46875 -21.972656 C 7.886719 -21.972656 7.425781 -21.515625 7.425781 -20.960938 L 7.425781 -6.84375 C 7.425781 -3.683594 6.8125 -1.65625 3.746094 -1.65625 C 3.101562 -1.65625 2.640625 -1.75 2.300781 -1.8125 C 2.085938 -1.839844 1.871094 -1.871094 1.8125 -1.871094 C 1.441406 -1.871094 0.953125 -1.535156 0.953125 -0.890625 C 0.953125 0.214844 2.578125 0.277344 3.40625 0.277344 C 8.070312 0.277344 9.484375 -2.425781 9.484375 -6.84375 Z M 9.484375 -20.960938 "/></g></g></g><g fill="#000000" fill-opacity="1"><g transform="translate(186.211767, 264.335109)"><g><path d="M 13.503906 -1.074219 C 13.503906 -1.566406 13.011719 -1.996094 12.492188 -1.996094 L 4.449219 -1.996094 L 4.449219 -9.914062 L 11.570312 -9.914062 C 12.121094 -9.914062 12.550781 -10.34375 12.550781 -10.894531 C 12.550781 -11.449219 12.09375 -11.878906 11.570312 -11.878906 L 4.449219 -11.878906 L 4.449219 -19.703125 L 12.183594 -19.703125 C 12.738281 -19.703125 13.164062 -20.101562 13.164062 -20.625 C 13.164062 -21.207031 12.738281 -21.667969 12.183594 -21.667969 L 3.683594 -21.667969 C 2.945312 -21.667969 2.425781 -21.054688 2.425781 -20.410156 L 2.425781 -1.257812 C 2.425781 -0.308594 3.253906 -0.03125 4.175781 -0.03125 L 12.492188 -0.03125 C 13.042969 -0.03125 13.503906 -0.460938 13.503906 -1.074219 Z M 13.503906 -1.074219 "/></g></g></g><g fill="#000000" fill-opacity="1"><g transform="translate(200.753923, 264.335109)"><g><path d="M 7.765625 -9.789062 L 12.953125 -0.492188 C 13.164062 -0.152344 13.503906 0.277344 13.964844 0.277344 C 14.425781 0.277344 14.882812 -0.214844 14.882812 -0.765625 C 14.882812 -0.980469 14.824219 -1.195312 14.761719 -1.320312 L 8.992188 -11.292969 L 14.269531 -20.410156 L 14.238281 -20.378906 C 14.300781 -20.53125 14.363281 -20.746094 14.363281 -20.960938 C 14.363281 -21.515625 13.964844 -21.972656 13.503906 -21.972656 C 12.953125 -21.972656 12.550781 -21.421875 12.308594 -20.992188 L 12.335938 -20.992188 L 7.765625 -12.765625 L 3.160156 -20.992188 C 2.886719 -21.515625 2.457031 -21.972656 2.054688 -21.972656 C 1.535156 -21.972656 1.105469 -21.484375 1.105469 -20.992188 C 1.105469 -20.808594 1.167969 -20.5625 1.257812 -20.378906 L 1.226562 -20.410156 L 6.535156 -11.292969 L 0.765625 -1.320312 C 0.675781 -1.195312 0.613281 -0.980469 0.613281 -0.765625 C 0.613281 -0.214844 1.074219 0.277344 1.566406 0.277344 C 2.085938 0.277344 2.363281 -0.152344 2.546875 -0.492188 Z M 7.765625 -9.789062 "/></g></g></g><g fill="#000000" fill-opacity="1"><g transform="translate(216.093742, 264.335109)"><g><path d="M 8.53125 0.277344 C 13.164062 0.277344 15.5 -3.160156 15.5 -7.488281 L 15.5 -14.210938 C 15.5 -18.445312 13.503906 -21.972656 8.53125 -21.972656 C 3.5 -21.972656 1.535156 -18.445312 1.535156 -14.210938 L 1.535156 -7.488281 C 1.535156 -3.160156 3.898438 0.277344 8.53125 0.277344 Z M 8.53125 -20.011719 C 12.121094 -20.011719 13.441406 -17.675781 13.441406 -14.210938 L 13.441406 -7.488281 C 13.441406 -4.082031 11.90625 -1.6875 8.53125 -1.6875 C 5.15625 -1.6875 3.589844 -4.082031 3.589844 -7.488281 L 3.589844 -14.210938 C 3.589844 -17.675781 4.878906 -20.011719 8.53125 -20.011719 Z M 8.53125 -20.011719 "/></g></g></g><g fill="#000000" fill-opacity="1"><g transform="translate(232.998221, 264.335109)"><g><path d="M 15.007812 0.277344 C 15.683594 0.277344 16.144531 -0.214844 16.144531 -0.859375 L 16.144531 -20.929688 C 16.144531 -21.484375 15.714844 -21.972656 15.160156 -21.972656 C 14.609375 -21.972656 14.117188 -21.484375 14.117188 -20.929688 L 14.117188 -3.773438 L 4.632812 -21.328125 C 4.417969 -21.730469 3.988281 -21.972656 3.53125 -21.972656 C 2.886719 -21.972656 2.394531 -21.484375 2.394531 -20.808594 L 2.394531 -0.765625 C 2.394531 -0.183594 2.855469 0.277344 3.40625 0.277344 C 3.988281 0.277344 4.449219 -0.183594 4.449219 -0.765625 L 4.449219 -17.832031 L 13.933594 -0.308594 C 14.117188 0.0625 14.609375 0.277344 15.007812 0.277344 Z M 15.007812 0.277344 "/></g></g></g><g fill="#000000" fill-opacity="1"><g transform="translate(187.496961, 307.085106)"><g/></g></g><path fill="#000000" d="M 252.75 163.46875 C 252.695312 164.082031 253.113281 163.878906 253.183594 163.980469 C 253.125 162.933594 252.636719 163.480469 252.75 163.46875 Z M 252.75 163.46875 " fill-opacity="1" fill-rule="nonzero"/><path fill="#000000" d="M 251.480469 153.457031 L 251.660156 153.617188 C 251.46875 153.140625 251.273438 152.671875 251.082031 152.207031 C 251.230469 152.617188 251.355469 153.035156 251.480469 153.457031 Z M 251.480469 153.457031 " fill-opacity="1" fill-rule="nonzero"/><path fill="#000000" d="M 249.8125 144.273438 C 249.695312 144.535156 249.695312 144.867188 249.753906 145.242188 C 249.820312 145.617188 249.957031 146.046875 250.09375 146.492188 C 250.164062 146.71875 250.242188 146.945312 250.308594 147.183594 L 250.421875 147.535156 C 250.457031 147.648438 250.492188 147.773438 250.515625 147.890625 C 250.640625 148.355469 250.730469 148.808594 250.742188 149.230469 L 250.628906 149.523438 L 251.308594 150.171875 C 251.195312 149.671875 251.082031 149.140625 250.921875 148.605469 C 250.777344 148.070312 250.628906 147.523438 250.46875 147.003906 C 250.175781 145.96875 249.890625 144.992188 249.8125 144.273438 Z M 249.8125 144.273438 " fill-opacity="1" fill-rule="nonzero"/><path fill="#000000" d="M 249.8125 139.023438 C 249.730469 139.21875 249.582031 138.980469 249.574219 138.957031 C 249.550781 138.933594 249.6875 139.117188 250.105469 140.183594 C 250.09375 140.070312 250.105469 140.023438 250.105469 139.957031 C 250.070312 139.855469 250.039062 139.742188 249.992188 139.59375 C 249.9375 139.433594 249.878906 139.253906 249.8125 139.023438 Z M 249.8125 139.023438 " fill-opacity="1" fill-rule="nonzero"/><path fill="#000000" d="M 250.09375 139.945312 C 250.421875 140.898438 250.117188 139.253906 250.09375 139.945312 Z M 250.09375 139.945312 " fill-opacity="1" fill-rule="nonzero"/><path fill="#000000" d="M 248.359375 135.648438 L 248.722656 136.21875 C 248.847656 136.410156 248.960938 136.605469 249.074219 136.796875 C 249.09375 136.640625 249.015625 136.273438 248.960938 136.003906 C 248.890625 135.730469 248.855469 135.546875 248.992188 135.730469 C 248.359375 134.503906 248.3125 134.832031 248.359375 135.648438 Z M 248.359375 135.648438 " fill-opacity="1" fill-rule="nonzero"/><path fill="#000000" d="M 247.402344 134.695312 C 247.527344 134.890625 247.652344 135.082031 247.765625 135.285156 C 247.789062 135.140625 247.746094 134.96875 247.402344 134.695312 Z M 247.402344 134.695312 " fill-opacity="1" fill-rule="nonzero"/><path fill="#000000" d="M 248.515625 136.535156 C 248.277344 136.117188 248.015625 135.695312 247.765625 135.273438 C 247.734375 135.492188 247.527344 135.59375 248.085938 135.855469 C 247.859375 135.832031 248.152344 136.015625 248.515625 136.535156 Z M 248.515625 136.535156 " fill-opacity="1" fill-rule="nonzero"/><path fill="#000000" d="M 248.699219 137.34375 C 248.753906 137.71875 248.847656 138.128906 248.835938 138.308594 C 248.824219 138.492188 248.722656 138.433594 248.367188 137.855469 C 248.847656 139.015625 249.152344 139.46875 249.230469 139.34375 C 249.277344 139.273438 249.253906 139.070312 249.175781 138.730469 C 249.105469 138.390625 248.960938 137.921875 248.699219 137.34375 Z M 248.699219 137.34375 " fill-opacity="1" fill-rule="nonzero"/><path fill="#000000" d="M 248.980469 144.003906 C 249.003906 144.332031 249.015625 144.648438 249.027344 144.980469 L 249.449219 145.730469 C 249.34375 145.535156 249.277344 145.082031 249.21875 144.683594 C 249.152344 144.285156 249.085938 143.945312 248.980469 144.003906 Z M 248.980469 144.003906 " fill-opacity="1" fill-rule="nonzero"/><path fill="#000000" d="M 245.109375 128.046875 C 244.941406 128.046875 244.984375 128.628906 244.863281 128.808594 C 245.078125 129.058594 245.269531 129.320312 245.472656 129.582031 C 245.339844 129.09375 244.953125 128.21875 245.109375 128.046875 Z M 245.109375 128.046875 " fill-opacity="1" fill-rule="nonzero"/><path fill="#000000" d="M 244.863281 128.808594 C 244.542969 128.421875 244.25 128.046875 243.929688 127.671875 C 244.542969 128.808594 244.757812 128.96875 244.863281 128.808594 Z M 244.863281 128.808594 " fill-opacity="1" fill-rule="nonzero"/><path fill="#000000" d="M 246.597656 134.785156 L 246.960938 135.273438 L 247.3125 135.773438 C 247.539062 136.105469 247.777344 136.433594 248.003906 136.773438 C 247.484375 135.96875 246.972656 135.160156 246.417969 134.378906 Z M 246.597656 134.785156 " fill-opacity="1" fill-rule="nonzero"/><path fill="#000000" d="M 242.195312 123.265625 C 242.445312 123.433594 242.691406 123.605469 242.941406 123.765625 L 242.320312 123.285156 L 241.683594 122.820312 Z M 242.195312 123.265625 " fill-opacity="1" fill-rule="nonzero"/><path fill="#000000" d="M 239.980469 120.273438 C 240.582031 120.59375 239.855469 119.308594 240.390625 119.71875 C 240.21875 119.523438 240.058594 119.34375 239.890625 119.171875 C 239.71875 119.003906 239.539062 118.855469 239.367188 118.71875 C 239.015625 118.433594 238.675781 118.183594 238.335938 117.957031 C 238.652344 118.230469 238.925781 118.558594 239.207031 118.933594 C 239.480469 119.308594 239.730469 119.753906 239.980469 120.273438 Z M 239.980469 120.273438 " fill-opacity="1" fill-rule="nonzero"/><path fill="#000000" d="M 237.246094 117.171875 C 237.5625 117.445312 237.925781 117.683594 238.335938 117.957031 C 237.992188 117.671875 237.640625 117.398438 237.246094 117.171875 Z M 237.246094 117.171875 " fill-opacity="1" fill-rule="nonzero"/><path fill="#000000" d="M 242.714844 125.515625 C 242.726562 125.367188 242.828125 125.058594 242.453125 124.320312 L 242.421875 125.023438 C 242.511719 125.171875 242.613281 125.34375 242.714844 125.515625 Z M 242.714844 125.515625 " fill-opacity="1" fill-rule="nonzero"/><path fill="#000000" d="M 242.421875 125.058594 L 242.421875 125.035156 C 242.089844 124.515625 241.863281 124.148438 241.761719 123.992188 C 241.84375 124.117188 242.046875 124.445312 242.421875 125.058594 Z M 242.421875 125.058594 " fill-opacity="1" fill-rule="nonzero"/><path fill="#000000" d="M 242.796875 125.640625 C 242.773438 125.59375 242.75 125.558594 242.714844 125.515625 C 242.714844 125.582031 242.714844 125.628906 242.796875 125.640625 Z M 242.796875 125.640625 " fill-opacity="1" fill-rule="nonzero"/><path fill="#000000" d="M 245.347656 131.21875 C 245.066406 130.890625 244.644531 130.378906 244.375 130.140625 C 244.101562 129.910156 243.953125 129.96875 244.191406 130.796875 C 244.453125 131.003906 244.519531 130.855469 244.632812 130.785156 C 244.691406 130.753906 244.757812 130.742188 244.871094 130.785156 C 244.984375 130.84375 245.132812 130.96875 245.347656 131.21875 Z M 245.347656 131.21875 " fill-opacity="1" fill-rule="nonzero"/><path fill="#000000" d="M 242.714844 126.515625 C 242.953125 126.96875 243.179688 127.421875 243.410156 127.878906 C 243.488281 127.796875 243.488281 127.480469 243.804688 127.773438 C 243.441406 127.355469 243.089844 126.933594 242.714844 126.515625 Z M 242.714844 126.515625 " fill-opacity="1" fill-rule="nonzero"/><path fill="#000000" d="M 242.203125 125.957031 L 242.714844 126.515625 L 242.453125 126.015625 Z M 242.203125 125.957031 " fill-opacity="1" fill-rule="nonzero"/><path fill="#000000" d="M 238.628906 119.46875 C 238.34375 119.265625 238.097656 119.023438 237.835938 118.753906 C 237.574219 118.492188 237.3125 118.195312 237.039062 117.898438 C 237.289062 118.265625 237.5625 118.628906 237.824219 118.980469 C 238.085938 119.34375 238.355469 119.695312 238.628906 120.023438 C 238.71875 120.035156 238.867188 120.070312 238.925781 120.023438 C 238.96875 119.980469 238.9375 119.832031 238.628906 119.46875 Z M 238.628906 119.46875 " fill-opacity="1" fill-rule="nonzero"/><path fill="#000000" d="M 240.511719 122.160156 C 240.480469 122.128906 240.445312 122.082031 240.410156 122.058594 C 240.433594 122.148438 240.46875 122.21875 240.511719 122.160156 Z M 240.511719 122.160156 " fill-opacity="1" fill-rule="nonzero"/><path fill="#000000" d="M 231.453125 112.070312 C 231.476562 112.117188 231.476562 112.160156 231.5 112.21875 C 231.523438 112.207031 231.546875 112.195312 231.570312 112.183594 Z M 231.453125 112.070312 " fill-opacity="1" fill-rule="nonzero"/><path fill="#000000" d="M 238.652344 120.195312 C 238.992188 120.773438 239.308594 121.023438 239.640625 121.242188 C 239.308594 120.878906 238.96875 120.46875 238.617188 120.023438 C 238.550781 120.023438 238.515625 120.046875 238.652344 120.195312 Z M 238.652344 120.195312 " fill-opacity="1" fill-rule="nonzero"/><path fill="#000000" d="M 235.585938 115.605469 C 235.679688 115.765625 235.769531 115.921875 235.871094 116.09375 C 235.972656 116.265625 236.074219 116.433594 236.1875 116.617188 C 236.121094 116.445312 236.019531 116.195312 235.90625 115.992188 C 235.792969 115.773438 235.667969 115.617188 235.585938 115.605469 Z M 235.585938 115.605469 " fill-opacity="1" fill-rule="nonzero"/><path fill="#000000" d="M 240.367188 121.808594 C 240.390625 121.832031 240.410156 121.855469 240.433594 121.878906 C 240.390625 121.648438 240.367188 121.695312 240.367188 121.808594 Z M 240.367188 121.808594 " fill-opacity="1" fill-rule="nonzero"/><path fill="#000000" d="M 240.367188 121.808594 C 240.117188 121.570312 239.878906 121.410156 239.640625 121.253906 C 239.902344 121.558594 240.160156 121.832031 240.398438 122.058594 C 240.378906 121.96875 240.367188 121.878906 240.367188 121.808594 Z M 240.367188 121.808594 " fill-opacity="1" fill-rule="nonzero"/><path fill="#000000" d="M 227.867188 112.480469 C 228.039062 112.367188 228.503906 112.515625 229.015625 112.867188 C 229.273438 113.035156 229.546875 113.253906 229.808594 113.515625 C 230.058594 113.773438 230.296875 114.070312 230.488281 114.398438 C 230.796875 114.59375 231.046875 114.640625 231.226562 114.582031 C 231.410156 114.523438 231.546875 114.355469 231.625 114.128906 C 231.785156 113.648438 231.714844 112.910156 231.488281 112.207031 C 231.339844 112.308594 231.238281 112.398438 229.957031 111.570312 C 230.082031 111.832031 230.625 112.46875 230.964844 112.992188 C 231.320312 113.515625 231.476562 113.890625 230.898438 113.582031 C 230.5 113.285156 230.242188 113.058594 230.058594 112.878906 C 229.867188 112.695312 229.761719 112.570312 229.683594 112.445312 C 229.535156 112.195312 229.515625 111.992188 229.21875 111.59375 C 229.367188 112.046875 228.777344 111.765625 228.128906 111.492188 C 227.492188 111.207031 226.777344 110.945312 226.722656 111.355469 C 227.21875 111.640625 227.699219 111.945312 228.1875 112.253906 C 228.164062 112.367188 227.574219 112.105469 227.867188 112.480469 Z M 227.867188 112.480469 " fill-opacity="1" fill-rule="nonzero"/><path fill="#000000" d="M 233.554688 114.253906 L 234.019531 114.660156 C 233.792969 114.390625 233.625 114.117188 233.441406 113.820312 C 233.261719 113.523438 233.078125 113.183594 232.851562 112.753906 C 231.964844 112.160156 231.703125 112.128906 231.570312 112.171875 C 232.304688 112.890625 233.03125 113.617188 233.738281 114.355469 Z M 233.554688 114.253906 " fill-opacity="1" fill-rule="nonzero"/><path fill="#000000" d="M 235.9375 116.71875 C 235.78125 116.695312 235.585938 116.617188 235.394531 116.523438 C 235.199219 116.433594 235.007812 116.34375 234.835938 116.273438 C 234.507812 116.148438 234.292969 116.148438 234.429688 116.640625 C 234.589844 116.796875 234.722656 116.933594 234.835938 117.046875 C 234.953125 117.160156 235.054688 117.253906 235.144531 117.320312 C 235.316406 117.457031 235.4375 117.523438 235.5625 117.582031 C 235.792969 117.683594 235.984375 117.695312 236.402344 118.046875 C 235.394531 116.980469 235.574219 117.09375 235.859375 117.265625 C 236.144531 117.433594 236.527344 117.648438 235.917969 116.765625 C 236.359375 117.148438 236.722656 117.523438 237.050781 117.898438 C 236.757812 117.457031 236.449219 117.035156 236.1875 116.617188 C 236.199219 116.640625 236.210938 116.660156 236.210938 116.683594 L 236.222656 116.695312 C 236.222656 116.695312 236.222656 116.695312 236.210938 116.695312 C 236.257812 116.832031 236.257812 116.878906 236.1875 116.753906 C 236.175781 116.753906 236.15625 116.71875 236.144531 116.707031 C 236.085938 116.730469 236.007812 116.730469 235.9375 116.71875 C 235.4375 116.015625 235.925781 116.535156 236.144531 116.707031 C 236.164062 116.695312 236.199219 116.707031 236.210938 116.695312 C 236.210938 116.695312 236.210938 116.683594 236.210938 116.683594 C 236.03125 116.515625 235.859375 116.332031 235.679688 116.171875 L 235.132812 115.660156 L 234.589844 115.160156 L 234.03125 114.671875 C 234.417969 115.148438 234.960938 115.707031 235.9375 116.71875 Z M 235.9375 116.71875 " fill-opacity="1" fill-rule="nonzero"/><path fill="#000000" d="M 242.660156 129.867188 C 242.648438 129.773438 242.683594 129.765625 242.703125 129.742188 C 242.566406 129.605469 242.5 129.558594 242.660156 129.867188 Z M 242.660156 129.867188 " fill-opacity="1" fill-rule="nonzero"/><path fill="#000000" d="M 242.308594 128.707031 C 242.464844 128.855469 242.691406 128.933594 242.988281 129.546875 C 243.171875 130.128906 242.808594 129.640625 242.703125 129.742188 C 243 130.035156 243.65625 130.855469 243.226562 129.628906 L 243.078125 129.480469 C 242.964844 129.207031 242.875 128.898438 242.785156 128.605469 C 242.691406 128.308594 242.613281 128.015625 242.558594 127.765625 C 242.445312 127.253906 242.398438 126.898438 242.476562 126.96875 C 242.320312 127.457031 242.238281 127.855469 242.308594 128.707031 Z M 242.308594 128.707031 " fill-opacity="1" fill-rule="nonzero"/><path fill="#000000" d="M 239.320312 122.582031 C 238.800781 121.957031 238.242188 121.367188 237.699219 120.765625 L 238.152344 121.96875 L 238.289062 121.785156 C 238.480469 122.070312 238.617188 122.265625 238.730469 122.390625 C 238.84375 122.515625 238.925781 122.570312 238.992188 122.605469 C 239.128906 122.648438 239.195312 122.558594 239.320312 122.582031 Z M 239.320312 122.582031 " fill-opacity="1" fill-rule="nonzero"/><path fill="#000000" d="M 231.386719 111.71875 L 231.933594 111.617188 L 231.558594 111.480469 L 231.183594 111.355469 L 230.445312 111.117188 Z M 231.386719 111.71875 " fill-opacity="1" fill-rule="nonzero"/><path fill="#000000" d="M 228.921875 109.640625 L 229.265625 109.410156 C 228.992188 109.285156 228.71875 109.171875 228.457031 109.046875 Z M 228.921875 109.640625 " fill-opacity="1" fill-rule="nonzero"/><path fill="#000000" d="M 132.5 189.285156 L 132.910156 189.832031 C 132.726562 189.570312 132.605469 189.398438 132.5 189.285156 Z M 132.5 189.285156 " fill-opacity="1" fill-rule="nonzero"/><path fill="#000000" d="M 130.414062 184.867188 L 130.1875 184.832031 C 130.378906 184.992188 130.492188 185.046875 130.414062 184.867188 Z M 130.414062 184.867188 " fill-opacity="1" fill-rule="nonzero"/><path fill="#000000" d="M 154.808594 102.730469 C 153.707031 102.910156 152.390625 103.058594 152.71875 103.367188 L 153.21875 103.570312 C 153.820312 103.117188 154.34375 102.890625 154.808594 102.730469 Z M 154.808594 102.730469 " fill-opacity="1" fill-rule="nonzero"/><path fill="#000000" d="M 125.132812 145.070312 C 125.203125 144.992188 125.257812 144.898438 125.328125 144.808594 C 125.246094 144.535156 125.179688 144.273438 125.113281 144.035156 C 125.121094 144.355469 125.113281 144.695312 125.132812 145.070312 Z M 125.132812 145.070312 " fill-opacity="1" fill-rule="nonzero"/><path fill="#000000" d="M 126.679688 146.171875 C 126.585938 146.378906 126.484375 146.570312 126.394531 146.773438 L 126.121094 147.390625 C 126.269531 147.128906 126.441406 146.730469 126.679688 146.171875 Z M 126.679688 146.171875 " fill-opacity="1" fill-rule="nonzero"/><path fill="#000000" d="M 149.890625 209.160156 C 150.1875 209.207031 150.484375 209.253906 150.777344 209.285156 C 150.527344 209.105469 150.367188 209.003906 150.253906 208.945312 C 150.140625 208.890625 150.085938 208.890625 150.050781 208.910156 C 149.972656 208.957031 149.996094 209.105469 149.890625 209.160156 Z M 149.890625 209.160156 " fill-opacity="1" fill-rule="nonzero"/><path fill="#000000" d="M 199.386719 95.820312 C 198.953125 95.648438 198.558594 95.515625 198.195312 95.410156 C 197.832031 95.308594 197.492188 95.230469 197.183594 95.171875 C 197.707031 95.390625 198.171875 95.617188 198.546875 95.765625 C 198.921875 95.910156 199.214844 95.96875 199.386719 95.820312 Z M 199.386719 95.820312 " fill-opacity="1" fill-rule="nonzero"/><path fill="#000000" d="M 127.5625 189.558594 C 127.824219 189.921875 127.996094 190.058594 128.074219 190.003906 C 127.8125 189.617188 127.621094 189.421875 127.5625 189.558594 Z M 127.5625 189.558594 " fill-opacity="1" fill-rule="nonzero"/><path fill="#000000" d="M 194.5625 94.820312 C 194.71875 94.878906 194.867188 94.921875 195.027344 94.980469 C 195.367188 94.992188 195.695312 95.003906 196.046875 95.035156 C 196.402344 95.070312 196.773438 95.105469 197.171875 95.183594 C 196.785156 95.023438 196.355469 94.898438 195.921875 94.820312 C 195.707031 94.785156 195.480469 94.765625 195.242188 94.753906 C 195.027344 94.742188 194.789062 94.765625 194.5625 94.820312 Z M 194.5625 94.820312 " fill-opacity="1" fill-rule="nonzero"/><path fill="#000000" d="M 235.769531 197.421875 C 235.824219 197.378906 235.882812 197.308594 235.9375 197.273438 C 235.90625 197.230469 235.847656 197.308594 235.769531 197.421875 Z M 235.769531 197.421875 " fill-opacity="1" fill-rule="nonzero"/><path fill="#000000" d="M 251.195312 172.628906 C 251.160156 172.921875 251.070312 173.398438 250.992188 173.855469 C 251.058594 173.640625 251.128906 173.265625 251.195312 172.628906 Z M 251.195312 172.628906 " fill-opacity="1" fill-rule="nonzero"/><path fill="#000000" d="M 218.285156 102.230469 C 218.910156 102.535156 218.410156 102.242188 218.285156 102.230469 Z M 218.285156 102.230469 " fill-opacity="1" fill-rule="nonzero"/><path fill="#000000" d="M 220.308594 105.332031 C 220.160156 105.296875 220.035156 105.296875 219.96875 105.378906 C 220.070312 105.308594 220.183594 105.296875 220.308594 105.332031 Z M 220.308594 105.332031 " fill-opacity="1" fill-rule="nonzero"/><path fill="#000000" d="M 187.726562 97.015625 C 187.707031 97.015625 187.695312 97.015625 187.671875 97.015625 C 187.863281 97.09375 187.828125 97.082031 187.726562 97.015625 Z M 187.726562 97.015625 " fill-opacity="1" fill-rule="nonzero"/><path fill="#000000" d="M 219.09375 102.898438 C 218.898438 102.730469 218.660156 102.546875 218.390625 102.367188 C 218.503906 102.457031 218.71875 102.628906 219.09375 102.898438 Z M 219.09375 102.898438 " fill-opacity="1" fill-rule="nonzero"/><path fill="#000000" d="M 219.070312 102.660156 C 219.261719 102.796875 219.421875 102.890625 219.570312 102.992188 C 219.683594 102.96875 219.636719 102.890625 219.070312 102.660156 Z M 219.070312 102.660156 " fill-opacity="1" fill-rule="nonzero"/><path fill="#000000" d="M 217.433594 101.808594 C 217.789062 101.992188 218.09375 102.171875 218.390625 102.367188 C 218.285156 102.273438 218.242188 102.230469 218.285156 102.230469 C 218.105469 102.140625 217.855469 102.015625 217.433594 101.808594 Z M 217.433594 101.808594 " fill-opacity="1" fill-rule="nonzero"/><path fill="#000000" d="M 191.871094 222.898438 C 191.917969 222.910156 191.960938 222.910156 192.007812 222.921875 C 192.644531 222.683594 192.359375 222.742188 191.871094 222.898438 Z M 191.871094 222.898438 " fill-opacity="1" fill-rule="nonzero"/><path fill="#000000" d="M 143.683594 116.480469 C 143.707031 116.457031 143.707031 116.433594 143.71875 116.410156 C 143.695312 116.433594 143.660156 116.445312 143.636719 116.46875 Z M 143.683594 116.480469 " fill-opacity="1" fill-rule="nonzero"/><path fill="#000000" d="M 142.308594 118.320312 C 142.457031 117.785156 142.636719 117.433594 142.867188 117.148438 C 143.082031 116.867188 143.355469 116.671875 143.648438 116.457031 C 143.183594 116.34375 142.707031 116.230469 142.242188 116.117188 C 142.253906 116.867188 142.273438 117.59375 142.308594 118.320312 Z M 142.308594 118.320312 " fill-opacity="1" fill-rule="nonzero"/><g clip-path="url(#8b48479622)"><path fill="#000000" d="M 139.007812 198.992188 L 138.652344 198.253906 L 138.324219 197.503906 C 139.152344 198.082031 139.753906 198.640625 140.0625 198.890625 C 140.21875 199.015625 140.3125 199.058594 140.335938 198.980469 C 140.355469 198.898438 140.300781 198.695312 140.175781 198.332031 C 139.878906 198.503906 139.484375 198.285156 139.050781 197.890625 C 138.621094 197.480469 138.132812 196.890625 137.679688 196.265625 C 137.199219 195.660156 136.769531 195.023438 136.351562 194.59375 C 135.941406 194.148438 135.578125 193.898438 135.261719 194.035156 C 135.144531 193.695312 135.03125 193.34375 134.929688 193.003906 C 135.078125 193.265625 135.167969 193.265625 135.316406 193.523438 C 135.179688 193.003906 135.011719 192.707031 134.816406 192.492188 C 134.714844 192.390625 134.613281 192.308594 134.5 192.242188 C 134.386719 192.171875 134.273438 192.117188 134.160156 192.058594 C 133.671875 191.820312 133.089844 191.546875 132.535156 190.332031 C 132.445312 190.117188 132.363281 189.910156 132.320312 189.742188 C 132.261719 189.558594 132.230469 189.410156 132.21875 189.308594 C 132.195312 189.09375 132.273438 189.046875 132.488281 189.296875 C 132.285156 189.023438 132.070312 188.742188 131.867188 188.46875 L 131.265625 187.617188 C 131.140625 187.34375 131.152344 187.207031 131.21875 187.21875 C 131.285156 187.230469 131.410156 187.367188 131.535156 187.640625 C 131.046875 186.71875 130.582031 185.773438 130.140625 184.832031 L 130.1875 184.84375 C 129.992188 184.683594 129.742188 184.390625 129.480469 184.09375 C 129.230469 183.796875 128.972656 183.492188 128.824219 183.273438 C 128.722656 182.457031 129.097656 183.605469 129.175781 183.34375 C 128.867188 182.84375 128.550781 182.332031 128.253906 181.820312 C 128.300781 181.421875 128.515625 181.546875 128.777344 181.898438 C 129.039062 182.253906 129.335938 182.84375 129.539062 183.410156 C 129.699219 182.910156 129.730469 182.582031 129.675781 182.332031 C 129.617188 182.070312 129.480469 181.867188 129.3125 181.617188 C 129.140625 181.367188 128.9375 181.058594 128.742188 180.59375 C 128.640625 180.367188 128.5625 180.09375 128.496094 179.765625 C 128.425781 179.433594 128.359375 179.058594 128.324219 178.617188 C 128.539062 179.117188 128.765625 179.617188 128.980469 180.117188 C 129.085938 179.808594 129.117188 179.503906 129.105469 179.207031 C 129.097656 178.898438 129.050781 178.59375 129.003906 178.253906 C 128.949219 177.921875 128.878906 177.558594 128.824219 177.171875 C 128.765625 176.785156 128.734375 176.367188 128.734375 175.890625 C 128.699219 176.003906 128.675781 176.308594 128.628906 176.660156 C 128.609375 176.84375 128.597656 177.023438 128.5625 177.21875 C 128.539062 177.410156 128.515625 177.59375 128.496094 177.765625 C 128.378906 178.457031 128.175781 178.878906 127.746094 178.023438 C 127.6875 177.492188 127.550781 176.808594 127.03125 175.890625 C 127.257812 175.820312 127.289062 175.558594 127.210938 175.160156 C 127.175781 174.957031 127.121094 174.730469 127.050781 174.46875 C 126.984375 174.207031 126.917969 173.921875 126.835938 173.628906 L 127.472656 173.582031 C 127.359375 173.265625 127.257812 173.046875 127.15625 172.867188 C 127.0625 172.695312 126.972656 172.570312 126.882812 172.46875 C 126.699219 172.265625 126.519531 172.128906 126.304688 171.765625 C 126.109375 170.273438 126.542969 169.898438 126.90625 169.492188 C 126.792969 168.320312 126.65625 168.742188 126.484375 169.128906 C 126.316406 169.515625 126.109375 169.84375 125.859375 168.457031 C 125.859375 167.957031 125.835938 167.492188 125.792969 167.046875 C 125.757812 166.605469 125.691406 166.171875 125.609375 165.730469 C 125.464844 164.84375 125.234375 163.910156 125.007812 162.71875 C 125.179688 161.308594 125.394531 162.957031 125.566406 162.445312 C 125.382812 162.035156 125.226562 161.628906 125.042969 161.21875 C 125.054688 160.910156 125.203125 161.015625 125.28125 161.058594 C 125.226562 160.796875 125.167969 160.660156 125.101562 160.582031 C 125.03125 160.503906 124.953125 160.46875 124.871094 160.421875 C 124.726562 160.320312 124.566406 160.148438 124.5 159.320312 C 124.328125 159.207031 124.316406 158.933594 124.375 158.558594 C 124.40625 158.378906 124.453125 158.160156 124.519531 157.933594 C 124.554688 157.820312 124.589844 157.695312 124.625 157.582031 C 124.65625 157.457031 124.703125 157.332031 124.738281 157.207031 C 125.03125 156.171875 125.359375 154.957031 125.089844 153.898438 C 125.328125 153.421875 125.441406 154.183594 125.703125 154.058594 C 125.589844 152.648438 125.597656 152.035156 125.554688 151.492188 C 125.53125 151.21875 125.519531 150.957031 125.476562 150.617188 C 125.453125 150.445312 125.429688 150.253906 125.40625 150.023438 C 125.394531 149.910156 125.371094 149.796875 125.359375 149.660156 C 125.351562 149.535156 125.339844 149.390625 125.316406 149.242188 L 125.703125 148.308594 C 125.828125 148.003906 125.972656 147.695312 126.109375 147.390625 C 125.722656 148.046875 125.496094 147.898438 125.351562 147.367188 C 125.28125 147.105469 125.226562 146.742188 125.191406 146.332031 C 125.15625 145.933594 125.144531 145.492188 125.132812 145.058594 C 124.792969 145.515625 124.488281 145.898438 124.328125 146.183594 L 124.476562 144.855469 C 124.519531 144.410156 124.601562 143.96875 124.65625 143.523438 C 124.839844 143.242188 124.976562 143.558594 125.121094 144.046875 C 125.121094 143.855469 125.113281 143.683594 125.101562 143.535156 C 125.339844 143.105469 125.507812 143.035156 125.644531 143.171875 C 125.769531 143.296875 125.871094 143.628906 125.953125 144.003906 C 125.746094 144.273438 125.542969 144.546875 125.328125 144.820312 C 125.542969 145.546875 125.816406 146.230469 126.199219 146.183594 C 126.167969 146.003906 126.191406 145.671875 126.234375 145.320312 C 126.292969 145.515625 126.359375 145.640625 126.441406 145.570312 C 126.53125 145.503906 126.449219 145.207031 126.40625 144.753906 L 127.234375 144.367188 L 127.007812 144.160156 C 127.4375 143.117188 127.914062 142.09375 128.402344 141.082031 C 128.425781 140.457031 128.4375 139.84375 128.449219 139.21875 C 128.460938 138.898438 128.472656 138.582031 128.496094 138.265625 C 128.503906 137.933594 128.527344 137.605469 128.574219 137.265625 C 128.609375 136.921875 128.652344 136.570312 128.710938 136.207031 C 128.765625 135.84375 128.847656 135.46875 128.9375 135.082031 C 128.980469 134.890625 129.027344 134.683594 129.085938 134.480469 C 129.140625 134.273438 129.210938 134.070312 129.265625 133.867188 C 129.402344 133.445312 129.550781 133.003906 129.742188 132.546875 C 129.777344 133.640625 130.402344 133.105469 130.921875 133.421875 C 130.664062 133.582031 130.46875 133.84375 130.308594 134.171875 C 130.152344 134.503906 130.015625 134.878906 129.914062 135.296875 C 129.800781 135.71875 129.6875 136.171875 129.5625 136.628906 C 129.4375 137.09375 129.277344 137.558594 129.0625 138.003906 C 129.515625 137.070312 129.699219 137.390625 129.6875 137.671875 C 129.824219 137.09375 129.945312 136.515625 130.09375 135.933594 L 130.308594 135.070312 L 130.550781 134.207031 C 130.753906 134.34375 130.921875 134.21875 131.105469 133.957031 C 131.285156 133.695312 131.503906 133.320312 131.796875 132.957031 C 131.207031 133.046875 131.34375 132.378906 131.71875 131.523438 C 131.808594 131.308594 131.910156 131.082031 132.023438 130.855469 C 132.136719 130.628906 132.25 130.390625 132.363281 130.160156 C 132.480469 129.933594 132.582031 129.707031 132.683594 129.503906 C 132.785156 129.296875 132.863281 129.105469 132.921875 128.921875 C 133.25 129.015625 133.351562 129.46875 132.433594 130.96875 C 132.832031 130.640625 133.046875 130.296875 133.160156 129.957031 C 133.273438 129.617188 133.320312 129.273438 133.339844 128.933594 C 133.386719 128.242188 133.464844 127.546875 134.238281 126.898438 C 134.011719 127.273438 133.851562 127.445312 133.898438 127.671875 C 133.964844 127.421875 134.113281 127.105469 134.296875 126.796875 C 134.488281 126.492188 134.703125 126.171875 134.90625 125.910156 C 135.113281 125.648438 135.316406 125.445312 135.464844 125.34375 C 135.601562 125.242188 135.691406 125.242188 135.667969 125.398438 L 135.429688 125.753906 C 136.269531 124.605469 137.554688 122.867188 138.652344 121.34375 C 138.914062 120.957031 139.1875 120.605469 139.425781 120.253906 C 139.539062 120.082031 139.652344 119.910156 139.753906 119.753906 C 139.855469 119.59375 139.960938 119.445312 140.039062 119.296875 C 140.378906 118.730469 140.5625 118.285156 140.480469 118.058594 C 140.582031 118.117188 140.96875 119.015625 140.980469 119.253906 C 141.414062 117.378906 141.957031 115.492188 142.59375 113.59375 C 142.671875 114.015625 143.332031 114.230469 143.773438 114.59375 C 144 114.773438 144.171875 114.992188 144.195312 115.273438 C 144.207031 115.421875 144.183594 115.582031 144.113281 115.765625 C 144.046875 115.957031 143.933594 116.160156 143.75 116.398438 C 144.035156 116.207031 144.328125 115.980469 144.683594 115.660156 C 145.035156 115.355469 145.417969 114.933594 145.875 114.378906 C 145.667969 114.492188 145.285156 114.492188 145 114.398438 C 144.714844 114.320312 144.535156 114.140625 144.75 113.898438 C 145.667969 113.617188 145.964844 113.492188 146.292969 113.34375 C 146.453125 113.265625 146.632812 113.171875 146.894531 113.046875 C 147.15625 112.921875 147.496094 112.765625 148.019531 112.570312 C 147.703125 112.730469 147.507812 112.46875 147.519531 112.082031 C 147.519531 111.707031 147.722656 111.183594 148.167969 110.855469 C 148.132812 111.09375 148.917969 111.671875 148.675781 112.015625 C 148.917969 111.59375 149.175781 111.171875 149.425781 110.742188 C 149.675781 110.320312 149.949219 109.898438 150.210938 109.480469 C 149.765625 110.046875 150.664062 110.308594 151.335938 110.207031 C 151.152344 110.195312 151.640625 109.867188 152.230469 109.480469 C 152.527344 109.285156 152.867188 109.09375 153.148438 108.898438 C 153.433594 108.71875 153.683594 108.546875 153.820312 108.421875 C 153.445312 108.546875 153.082031 108.695312 152.71875 108.832031 C 153.046875 108.640625 153.320312 108.445312 153.558594 108.265625 C 153.796875 108.082031 153.992188 107.898438 154.160156 107.707031 C 154.332031 107.523438 154.46875 107.332031 154.59375 107.148438 C 154.71875 106.96875 154.832031 106.785156 154.945312 106.605469 C 155.171875 106.242188 155.398438 105.855469 155.75 105.503906 C 156.101562 105.140625 156.554688 104.765625 157.257812 104.410156 C 157.03125 104.785156 157.113281 106.082031 158.542969 105.480469 C 158.632812 105.265625 158.78125 104.933594 158.984375 104.503906 C 159.1875 104.082031 159.460938 103.570312 159.800781 103.046875 C 159.972656 102.785156 160.15625 102.515625 160.359375 102.253906 C 160.5625 101.980469 160.789062 101.730469 161.027344 101.46875 C 161.265625 101.21875 161.527344 100.96875 161.800781 100.742188 C 162.074219 100.515625 162.367188 100.308594 162.675781 100.128906 C 162.878906 100.160156 163.082031 100.183594 163.296875 100.230469 C 163.921875 99.855469 164.558594 99.480469 165.207031 99.128906 C 164.957031 99.445312 164.582031 99.855469 164.160156 100.34375 C 163.945312 100.582031 163.71875 100.84375 163.480469 101.105469 C 163.242188 101.367188 162.992188 101.640625 162.742188 101.921875 C 162.242188 102.46875 161.742188 103.046875 161.265625 103.546875 C 160.800781 104.070312 160.359375 104.535156 159.996094 104.910156 C 160.5625 104.773438 160.675781 104.832031 160.847656 104.820312 C 160.925781 104.820312 161.015625 104.796875 161.1875 104.730469 C 161.359375 104.660156 161.597656 104.546875 161.992188 104.378906 C 162.332031 104.398438 162.164062 104.59375 161.855469 104.808594 C 161.550781 105.035156 161.121094 105.285156 160.890625 105.398438 L 161.800781 105.023438 L 162.71875 104.671875 L 163.183594 104.503906 L 163.652344 104.34375 L 164.582031 104.015625 C 164.378906 103.742188 165.023438 103.320312 165.683594 102.898438 C 166.351562 102.503906 167.035156 102.117188 166.875 101.878906 C 165.582031 102.558594 164.308594 103.296875 163.070312 104.058594 C 162.867188 103.785156 163.253906 103.117188 164.058594 102.390625 C 164.867188 101.683594 166.101562 100.921875 167.5 100.546875 C 167.886719 100.558594 167.851562 100.878906 167.726562 101.230469 C 167.601562 101.570312 167.40625 101.933594 167.476562 102.023438 C 167.542969 101.945312 167.726562 101.820312 167.976562 101.695312 C 168.226562 101.558594 168.519531 101.421875 168.839844 101.296875 C 169.453125 101.046875 170.074219 100.855469 170.222656 100.898438 C 169.871094 101.117188 169.519531 101.355469 169.167969 101.570312 C 169.566406 101.523438 169.894531 101.390625 170.210938 101.242188 C 170.53125 101.09375 170.824219 100.910156 171.132812 100.742188 C 171.4375 100.558594 171.765625 100.421875 172.128906 100.308594 C 172.3125 100.253906 172.515625 100.21875 172.730469 100.195312 C 172.949219 100.171875 173.175781 100.183594 173.425781 100.207031 C 173.582031 100.183594 173.800781 100.195312 174.027344 100.230469 C 174.253906 100.253906 174.492188 100.296875 174.707031 100.34375 C 175.148438 100.421875 175.511719 100.457031 175.523438 100.253906 C 174.355469 99.707031 173.640625 97.46875 174.277344 96.773438 C 174.402344 96.773438 175.320312 96.773438 176.308594 96.84375 C 176.558594 96.855469 176.808594 96.878906 177.046875 96.898438 C 177.296875 96.921875 177.523438 96.945312 177.75 96.980469 C 178.191406 97.035156 178.542969 97.09375 178.75 97.160156 C 179.339844 97.390625 178.964844 97.785156 178.578125 98.183594 C 178.191406 98.582031 177.804688 98.96875 178.292969 99.160156 C 178.304688 98.980469 178.875 98.671875 179.113281 98.570312 C 179.816406 98.640625 178.894531 99.160156 180.371094 98.898438 C 180.554688 98.207031 183.425781 98.683594 181.03125 98.273438 C 181.394531 98.195312 181.675781 98.148438 181.914062 98.140625 C 182.152344 98.128906 182.371094 98.140625 182.574219 98.148438 C 183.003906 98.183594 183.460938 98.21875 184.324219 98.171875 C 184.039062 97.96875 184.414062 97.582031 185.050781 97.21875 C 185.367188 97.046875 185.765625 96.878906 186.160156 96.742188 C 186.367188 96.671875 186.570312 96.605469 186.773438 96.558594 C 186.980469 96.515625 187.171875 96.480469 187.363281 96.457031 C 187.273438 96.628906 187.613281 96.855469 187.773438 96.957031 C 187.964844 96.96875 188.148438 96.96875 188.328125 96.980469 C 188.511719 96.992188 188.691406 97.003906 188.863281 97.015625 C 189.203125 97.035156 189.53125 97.070312 189.851562 97.105469 C 190.476562 97.171875 191.066406 97.265625 191.632812 97.34375 C 192.199219 97.433594 192.769531 97.523438 193.371094 97.617188 C 193.664062 97.660156 193.972656 97.71875 194.300781 97.765625 C 194.460938 97.785156 194.628906 97.808594 194.789062 97.832031 C 194.957031 97.855469 195.128906 97.878906 195.300781 97.910156 C 195.425781 98.015625 195.808594 98.148438 196.09375 98.296875 C 196.378906 98.445312 196.546875 98.59375 196.242188 98.695312 C 196.660156 98.640625 197.070312 98.480469 197.933594 98.605469 C 198.714844 99.046875 198.226562 98.980469 197.695312 98.921875 C 197.160156 98.878906 196.570312 98.832031 197.148438 99.273438 C 197.320312 98.898438 199.453125 99.140625 200.726562 99.183594 C 200.667969 99.015625 200.464844 98.890625 200.167969 98.785156 C 199.875 98.683594 199.488281 98.617188 199.078125 98.570312 C 198.660156 98.535156 198.21875 98.503906 197.796875 98.503906 C 197.375 98.503906 196.980469 98.515625 196.660156 98.523438 C 196.71875 98.117188 197.332031 97.773438 198.308594 97.582031 C 198.796875 97.492188 199.386719 97.421875 200.03125 97.410156 C 200.679688 97.398438 201.40625 97.421875 202.179688 97.515625 C 202.78125 97.605469 203.144531 97.707031 203.335938 97.796875 C 203.539062 97.890625 203.585938 97.980469 203.574219 98.046875 C 203.550781 98.195312 203.28125 98.273438 203.496094 98.273438 C 204.585938 98.59375 205.378906 98.773438 206.027344 98.84375 C 206.664062 98.921875 207.160156 98.910156 207.628906 98.898438 C 208.09375 98.898438 208.535156 98.910156 209.070312 99.023438 C 209.339844 99.082031 209.625 99.183594 209.953125 99.320312 C 210.113281 99.390625 210.296875 99.46875 210.476562 99.558594 C 210.660156 99.648438 210.863281 99.753906 211.066406 99.890625 C 211.667969 100.421875 211.578125 100.671875 211.375 100.84375 C 211.15625 101.023438 210.828125 101.128906 210.90625 101.367188 C 210.667969 101.296875 210.453125 101.21875 210.25 101.140625 C 210.046875 101.070312 209.851562 100.992188 209.671875 100.910156 C 209.308594 100.753906 209 100.582031 208.695312 100.410156 C 208.398438 100.253906 208.117188 100.09375 207.832031 99.945312 C 207.695312 99.878906 207.546875 99.796875 207.402344 99.742188 C 207.253906 99.683594 207.105469 99.628906 206.945312 99.570312 C 207.445312 99.808594 207.921875 100.082031 208.410156 100.34375 C 208.09375 100.320312 207.617188 100.230469 207.128906 100.105469 C 206.652344 99.992188 206.175781 99.832031 205.855469 99.648438 C 206.117188 99.867188 206.695312 100.105469 207.457031 100.410156 C 207.84375 100.570312 208.261719 100.730469 208.730469 100.898438 C 209.183594 101.082031 209.671875 101.273438 210.183594 101.46875 C 210.679688 101.683594 211.203125 101.890625 211.714844 102.117188 C 211.964844 102.230469 212.226562 102.355469 212.476562 102.46875 C 212.722656 102.582031 212.984375 102.695312 213.222656 102.832031 C 213.472656 102.957031 213.710938 103.082031 213.949219 103.207031 C 214.1875 103.332031 214.414062 103.457031 214.632812 103.582031 C 215.0625 103.84375 215.484375 104.082031 215.835938 104.332031 C 216.460938 104.457031 217.480469 104.796875 217.140625 104.378906 L 216.140625 103.933594 C 215.789062 103.515625 216.3125 103.617188 216.789062 103.742188 C 217.265625 103.855469 217.683594 103.980469 217.105469 103.558594 C 217.289062 103.617188 217.480469 103.660156 217.664062 103.71875 C 217.855469 103.773438 218.035156 103.832031 218.242188 103.898438 C 218.628906 104.023438 219.035156 104.148438 219.445312 104.320312 C 219.851562 104.492188 220.261719 104.683594 220.683594 104.910156 C 221.089844 105.148438 221.511719 105.433594 221.929688 105.765625 L 221.929688 106.492188 C 222 106.308594 220.964844 105.445312 220.363281 105.296875 C 220.589844 105.355469 220.839844 105.535156 221.113281 105.773438 C 221.386719 106.015625 221.691406 106.296875 221.988281 106.582031 C 222.292969 106.867188 222.601562 107.128906 222.90625 107.320312 C 223.214844 107.515625 223.53125 107.640625 223.835938 107.617188 C 223.507812 107.21875 223.191406 106.820312 222.851562 106.433594 C 223.214844 106.570312 223.589844 106.730469 223.984375 106.878906 C 224.382812 107.035156 224.800781 107.195312 225.210938 107.390625 C 225.621094 107.582031 226.039062 107.796875 226.4375 108.046875 C 226.835938 108.296875 227.210938 108.582031 227.550781 108.910156 C 227.390625 108.410156 227.289062 108.355469 227.152344 108.265625 C 227.015625 108.160156 226.847656 108.015625 226.503906 107.332031 C 226.722656 108.023438 225.746094 107.296875 224.835938 106.640625 C 224.371094 106.320312 223.929688 106.003906 223.667969 105.890625 C 223.394531 105.773438 223.316406 105.867188 223.578125 106.308594 C 223.40625 105.945312 223.203125 105.671875 222.988281 105.421875 C 222.757812 105.183594 222.53125 104.96875 222.269531 104.773438 C 221.75 104.367188 221.191406 103.945312 220.578125 103.183594 C 220.558594 103.285156 220.648438 103.445312 220.578125 103.480469 C 220.546875 103.492188 220.464844 103.46875 220.320312 103.390625 C 220.171875 103.308594 219.945312 103.160156 219.613281 102.945312 C 219.523438 102.957031 219.34375 102.945312 219.21875 102.921875 C 219.171875 102.890625 219.160156 102.878906 219.125 102.855469 C 219.148438 102.878906 219.171875 102.898438 219.195312 102.921875 C 219.117188 102.910156 219.117188 102.921875 219.21875 102.945312 C 219.5 103.207031 219.726562 103.445312 219.773438 103.605469 C 219.546875 103.605469 219.242188 103.523438 218.886719 103.410156 C 218.71875 103.355469 218.535156 103.285156 218.34375 103.207031 C 218.160156 103.128906 217.96875 103.046875 217.765625 102.96875 C 217.378906 102.808594 216.992188 102.648438 216.652344 102.503906 C 216.3125 102.367188 216.003906 102.273438 215.789062 102.230469 C 214.996094 101.730469 216.242188 102.195312 215.878906 101.785156 L 215.234375 101.660156 L 214.585938 101.546875 C 214.621094 101.320312 214.132812 100.890625 213.90625 100.605469 C 213.78125 100.46875 213.734375 100.355469 213.835938 100.332031 C 213.949219 100.296875 214.222656 100.355469 214.757812 100.535156 C 214.15625 100.242188 213.542969 99.96875 212.929688 99.695312 C 212.679688 99.515625 212.40625 99.34375 212.113281 99.183594 C 211.816406 99.015625 211.511719 98.855469 211.191406 98.71875 C 210.566406 98.445312 209.941406 98.21875 209.433594 98.140625 C 209 97.933594 208.386719 97.84375 208.003906 97.808594 C 207.617188 97.773438 207.445312 97.785156 207.898438 97.753906 C 207.390625 97.640625 206.867188 97.515625 206.355469 97.398438 L 204.8125 97.082031 L 204.8125 96.96875 C 203.324219 96.523438 201.722656 96.320312 200.089844 96.070312 C 198.457031 95.832031 196.785156 95.546875 195.074219 94.933594 C 194.550781 94.933594 194.003906 94.933594 193.390625 94.898438 C 193.085938 94.890625 192.757812 94.867188 192.394531 94.832031 C 192.210938 94.808594 192.019531 94.796875 191.824219 94.765625 C 191.632812 94.742188 191.417969 94.71875 191.203125 94.683594 L 190.882812 94.285156 C 190.203125 94.296875 189.203125 94.171875 188.285156 94.082031 C 187.363281 94.015625 186.546875 93.96875 186.253906 94.171875 C 185.527344 93.671875 183.855469 93.628906 182.097656 93.808594 C 180.335938 93.980469 178.488281 94.34375 177.296875 94.433594 L 177.273438 94.945312 C 175.648438 95.148438 174.128906 95.558594 172.210938 96.195312 L 172.425781 96.59375 C 172.015625 96.765625 171.550781 96.910156 171.03125 97.035156 C 170.496094 97.148438 169.929688 97.265625 169.316406 97.367188 C 169.167969 97.390625 169.007812 97.421875 168.851562 97.445312 C 168.691406 97.480469 168.53125 97.503906 168.371094 97.535156 C 168.054688 97.59375 167.726562 97.660156 167.40625 97.730469 C 167.078125 97.796875 166.75 97.890625 166.433594 97.980469 C 166.101562 98.070312 165.773438 98.171875 165.457031 98.285156 C 165.582031 98.058594 166.25 97.890625 166.75 97.832031 C 166.316406 97.84375 165.898438 97.890625 165.488281 97.980469 C 165.082031 98.070312 164.671875 98.195312 164.273438 98.34375 C 163.878906 98.492188 163.492188 98.671875 163.105469 98.867188 C 162.71875 99.046875 162.34375 99.265625 161.96875 99.46875 C 161.222656 99.878906 160.507812 100.332031 159.792969 100.695312 C 159.074219 101.082031 158.347656 101.378906 157.613281 101.546875 C 157.019531 102.015625 156.523438 102.21875 156.011719 102.367188 C 156.066406 102.332031 156.125 102.296875 156.160156 102.265625 C 156.089844 102.296875 155.988281 102.34375 155.886719 102.398438 C 155.726562 102.445312 155.558594 102.480469 155.386719 102.523438 C 155.214844 102.570312 155.046875 102.628906 154.863281 102.683594 C 155.195312 102.628906 155.488281 102.558594 155.738281 102.480469 C 155.488281 102.617188 155.183594 102.808594 154.851562 103.023438 C 154.523438 103.242188 154.171875 103.480469 153.832031 103.753906 L 153.273438 103.523438 C 153.21875 103.570312 153.171875 103.59375 153.117188 103.640625 C 152.300781 103.910156 152.652344 104.171875 153.21875 104.253906 C 152.890625 104.535156 152.605469 104.820312 152.414062 105.082031 C 151.925781 104.933594 151.480469 105.285156 151.027344 105.648438 C 150.800781 105.832031 150.5625 106.023438 150.3125 106.148438 C 150.0625 106.285156 149.789062 106.367188 149.484375 106.332031 C 149.425781 106.492188 149.175781 106.742188 148.859375 107.035156 C 148.542969 107.34375 148.144531 107.695312 147.757812 108.046875 C 147.382812 108.410156 147.019531 108.796875 146.757812 109.140625 C 146.5 109.480469 146.351562 109.796875 146.394531 110.035156 C 146.304688 109.96875 146.078125 110.082031 146.429688 109.796875 C 145.636719 110.296875 144.863281 110.832031 144.375 111.558594 L 143.683594 111.367188 L 143.183594 112.34375 L 142.707031 113.332031 C 142.128906 113.617188 141.71875 113.820312 141.515625 113.796875 C 141.308594 113.773438 141.320312 113.523438 141.605469 112.933594 C 141.183594 113.582031 140.890625 114.023438 140.640625 114.367188 C 140.402344 114.707031 140.230469 114.933594 140.0625 115.148438 C 139.890625 115.367188 139.734375 115.582031 139.550781 115.878906 C 139.371094 116.183594 139.128906 116.570312 138.847656 117.148438 L 138.644531 116.796875 C 138.347656 117.140625 138.050781 117.671875 137.769531 118.140625 C 137.484375 118.617188 137.199219 119.023438 136.90625 119.128906 C 136.667969 119.265625 136.40625 119.492188 136.089844 119.785156 C 135.929688 119.933594 135.769531 120.09375 135.601562 120.273438 C 135.429688 120.457031 135.261719 120.660156 135.078125 120.878906 C 134.898438 121.09375 134.703125 121.320312 134.523438 121.558594 C 134.339844 121.796875 134.136719 122.058594 133.941406 122.320312 C 133.839844 122.457031 133.738281 122.582031 133.636719 122.71875 C 133.535156 122.855469 133.433594 123.003906 133.339844 123.140625 C 133.136719 123.421875 132.933594 123.71875 132.726562 124.015625 C 131.910156 125.21875 131.070312 126.523438 130.265625 127.820312 C 129.867188 128.46875 129.46875 129.105469 129.085938 129.71875 C 128.890625 130.023438 128.699219 130.332031 128.503906 130.617188 C 128.3125 130.910156 128.132812 131.195312 127.949219 131.46875 C 128.6875 131.273438 128.300781 131.753906 127.824219 132.367188 C 127.585938 132.671875 127.335938 133.015625 127.175781 133.320312 C 127.019531 133.617188 126.984375 133.878906 127.167969 134.015625 C 126.804688 134.183594 126.359375 134.796875 126.484375 133.921875 C 126.382812 134.242188 126.269531 134.535156 126.15625 134.820312 C 126.042969 135.09375 125.941406 135.355469 125.828125 135.605469 C 125.714844 135.84375 125.609375 136.082031 125.507812 136.296875 C 125.40625 136.515625 125.316406 136.730469 125.214844 136.933594 C 125.121094 137.140625 125.03125 137.34375 124.964844 137.546875 C 124.882812 137.753906 124.816406 137.957031 124.769531 138.160156 C 124.667969 138.582031 124.613281 139.023438 124.644531 139.515625 C 124.28125 139.71875 124.464844 138.84375 124.214844 139.046875 C 124.191406 139.273438 124.167969 139.933594 123.929688 140.148438 C 123.691406 140.367188 123.839844 139.707031 123.863281 139.253906 C 123.660156 139.910156 123.554688 140.445312 123.511719 140.867188 C 123.488281 141.296875 123.523438 141.617188 123.613281 141.878906 C 123.785156 142.390625 124.148438 142.605469 124.488281 142.808594 C 124.125 143.421875 123.917969 143.898438 123.828125 144.355469 C 123.75 144.820312 123.785156 145.253906 123.917969 145.796875 C 123.738281 146.003906 123.542969 146.285156 123.429688 146.308594 C 123.316406 146.332031 123.261719 146.09375 123.421875 145.265625 C 123.386719 145.378906 123.339844 145.546875 123.273438 145.765625 C 123.203125 145.980469 123.136719 146.242188 123.066406 146.523438 C 122.988281 146.808594 122.910156 147.128906 122.828125 147.445312 C 122.761719 147.773438 122.683594 148.105469 122.613281 148.433594 C 122.476562 149.09375 122.398438 149.742188 122.363281 150.21875 C 122.339844 150.707031 122.386719 151.035156 122.546875 151.082031 C 122.351562 151.355469 122.308594 152.390625 122.363281 152.640625 C 122.296875 153.160156 122.238281 153.570312 122.195312 153.910156 C 122.148438 154.253906 122.113281 154.546875 122.09375 154.832031 C 122.058594 155.117188 122.035156 155.398438 122.011719 155.742188 C 121.988281 156.082031 121.976562 156.492188 121.957031 157.003906 L 122.09375 156.433594 C 122.445312 156.867188 122.457031 157.296875 122.398438 157.832031 C 122.339844 158.367188 122.183594 159.003906 122.226562 159.84375 L 122.148438 159.796875 C 121.988281 160.753906 121.957031 161.34375 121.957031 161.742188 C 121.957031 162.140625 121.976562 162.34375 122.023438 162.546875 C 122.058594 162.753906 122.09375 162.957031 122.09375 163.34375 C 122.09375 163.535156 122.082031 163.773438 122.046875 164.09375 C 122.023438 164.410156 122 164.785156 121.945312 165.273438 L 122.398438 165.035156 C 122.660156 165.105469 122.761719 165.355469 122.785156 165.71875 C 122.816406 166.082031 122.761719 166.558594 122.695312 167.105469 C 122.636719 167.648438 122.570312 168.253906 122.558594 168.855469 C 122.558594 169.457031 122.613281 170.058594 122.785156 170.582031 C 122.828125 170.308594 122.886719 170.035156 122.941406 169.753906 C 123.191406 170.320312 122.988281 171.195312 122.726562 172.09375 C 122.488281 172.992188 122.195312 173.921875 122.261719 174.535156 C 122.238281 174.820312 122.035156 174.148438 121.898438 173.796875 C 121.945312 175.445312 122.125 175.515625 122.363281 175.457031 C 122.601562 175.398438 122.910156 175.230469 123.261719 176.367188 C 123.148438 176.617188 122.910156 176.535156 122.738281 176.582031 C 122.648438 176.605469 122.578125 176.660156 122.558594 176.808594 C 122.535156 176.957031 122.546875 177.207031 122.636719 177.605469 C 122.625 177.820312 122.761719 178.195312 122.964844 178.660156 C 123.179688 179.140625 123.476562 179.707031 123.785156 180.308594 C 123.941406 180.617188 124.101562 180.921875 124.25 181.242188 C 124.328125 181.398438 124.394531 181.558594 124.464844 181.71875 C 124.53125 181.878906 124.601562 182.035156 124.667969 182.195312 C 124.792969 182.515625 124.90625 182.832031 124.988281 183.140625 C 125.078125 183.445312 125.132812 183.742188 125.15625 184.023438 C 125.226562 183.480469 125.292969 182.945312 125.871094 183.910156 C 125.960938 184.105469 126.03125 184.320312 126.097656 184.558594 C 126.179688 184.785156 126.246094 185.035156 126.304688 185.296875 C 126.371094 185.558594 126.429688 185.832031 126.496094 186.105469 C 126.5625 186.378906 126.644531 186.648438 126.722656 186.921875 C 126.804688 187.195312 126.882812 187.46875 126.972656 187.730469 C 127.0625 187.992188 127.175781 188.230469 127.289062 188.46875 C 127.40625 188.695312 127.53125 188.910156 127.675781 189.09375 C 127.824219 189.273438 127.984375 189.433594 128.152344 189.558594 C 128.1875 189.785156 128.164062 189.890625 128.109375 189.921875 C 128.199219 190.058594 128.3125 190.21875 128.425781 190.390625 C 128.539062 190.558594 128.664062 190.742188 128.800781 190.945312 C 129.0625 191.332031 129.34375 191.765625 129.628906 192.160156 C 130.195312 192.96875 130.796875 193.683594 131.183594 193.898438 C 130.980469 194.367188 131.195312 195.003906 131.605469 195.695312 C 132.023438 196.390625 132.636719 197.140625 133.25 197.84375 C 133.558594 198.195312 133.863281 198.523438 134.148438 198.84375 C 134.429688 199.160156 134.667969 199.457031 134.863281 199.71875 C 135.25 200.242188 135.40625 200.660156 135.101562 200.878906 C 135.304688 201.140625 135.519531 201.390625 135.738281 201.640625 C 135.953125 201.890625 136.15625 202.148438 136.382812 202.398438 C 136.828125 202.898438 137.257812 203.398438 137.710938 203.890625 L 137.53125 203.910156 C 139.152344 205.890625 140.0625 206.265625 140.9375 206.640625 C 141.277344 207.117188 140.878906 206.921875 140.789062 206.945312 C 141.09375 207.296875 141.367188 207.605469 141.617188 207.890625 C 141.867188 208.160156 142.09375 208.398438 142.308594 208.617188 C 142.730469 209.046875 143.105469 209.378906 143.480469 209.660156 C 143.671875 209.808594 143.851562 209.945312 144.058594 210.070312 C 144.261719 210.195312 144.476562 210.320312 144.714844 210.457031 C 144.953125 210.582031 145.203125 210.730469 145.5 210.867188 C 145.792969 211.003906 146.113281 211.160156 146.464844 211.332031 L 146.40625 211.910156 C 146.621094 211.980469 146.964844 212.265625 147.40625 212.660156 C 147.621094 212.867188 147.882812 213.09375 148.15625 213.34375 C 148.292969 213.46875 148.4375 213.59375 148.585938 213.730469 C 148.734375 213.867188 148.894531 214.003906 149.050781 214.140625 C 150.335938 215.253906 152.003906 216.46875 153.730469 217.148438 C 153.671875 217.183594 153.558594 217.21875 153.273438 217.140625 C 153.511719 217.242188 153.75 217.355469 153.992188 217.46875 C 154.230469 217.59375 154.476562 217.707031 154.71875 217.84375 C 154.957031 217.980469 155.203125 218.117188 155.445312 218.265625 C 155.691406 218.398438 155.929688 218.546875 156.167969 218.695312 C 156.410156 218.84375 156.65625 219.003906 156.894531 219.148438 C 157.136719 219.296875 157.382812 219.445312 157.621094 219.59375 C 157.859375 219.742188 158.101562 219.898438 158.339844 220.035156 C 158.578125 220.171875 158.816406 220.320312 159.042969 220.457031 C 159.507812 220.730469 159.960938 220.96875 160.402344 221.183594 C 160.621094 221.285156 160.835938 221.390625 161.039062 221.46875 C 161.242188 221.546875 161.449219 221.617188 161.652344 221.683594 C 162.050781 221.796875 162.414062 221.878906 162.742188 221.878906 C 163.070312 221.878906 163.367188 221.820312 163.628906 221.671875 L 164.296875 221.808594 L 164.96875 221.933594 C 165.410156 222.015625 165.851562 222.105469 166.308594 222.160156 C 165.898438 222.015625 165.613281 221.878906 165.410156 221.773438 C 165.207031 221.671875 165.09375 221.59375 165.046875 221.523438 C 164.945312 221.398438 165.105469 221.355469 165.320312 221.308594 C 165.75 221.242188 166.421875 221.230469 165.808594 220.855469 C 165.964844 220.898438 166.136719 220.957031 166.308594 221.023438 C 166.476562 221.09375 166.648438 221.160156 166.816406 221.242188 C 167.148438 221.398438 167.453125 221.570312 167.65625 221.730469 C 167.875 221.878906 168 222.003906 167.964844 222.070312 C 167.929688 222.140625 167.75 222.140625 167.339844 222.035156 L 167.125 221.867188 C 166.910156 222.035156 167.046875 222.230469 167.375 222.421875 C 167.703125 222.617188 168.226562 222.796875 168.769531 222.992188 C 169.316406 223.171875 169.882812 223.332031 170.292969 223.492188 C 170.496094 223.570312 170.667969 223.648438 170.78125 223.71875 C 170.894531 223.796875 170.9375 223.867188 170.914062 223.933594 C 172.585938 224.34375 174.253906 224.707031 175.910156 225.035156 C 176.332031 225.117188 176.738281 225.207031 177.160156 225.273438 C 177.578125 225.34375 177.988281 225.421875 178.40625 225.492188 C 178.828125 225.558594 179.238281 225.617188 179.65625 225.683594 C 179.859375 225.71875 180.078125 225.753906 180.28125 225.773438 C 180.484375 225.796875 180.699219 225.832031 180.90625 225.855469 C 181.109375 225.878906 181.324219 225.910156 181.53125 225.933594 C 181.734375 225.957031 181.949219 225.992188 182.152344 226.003906 C 182.574219 226.046875 182.984375 226.082031 183.390625 226.128906 C 183.800781 226.160156 184.21875 226.195312 184.628906 226.21875 C 184.832031 226.230469 185.039062 226.253906 185.253906 226.265625 C 185.457031 226.273438 185.660156 226.285156 185.867188 226.285156 C 187.511719 226.378906 189.148438 226.367188 190.769531 226.273438 C 190.507812 226.046875 190.246094 225.832031 189.988281 225.605469 C 190.363281 225.605469 190.734375 225.570312 191.097656 225.558594 C 191.472656 225.535156 191.847656 225.523438 192.210938 225.503906 C 192.507812 225.558594 192.722656 225.683594 192.65625 225.808594 C 192.621094 225.867188 192.519531 225.933594 192.324219 225.980469 C 192.132812 226.035156 191.847656 226.082031 191.441406 226.09375 C 191.882812 226.273438 192.542969 226.128906 193.109375 225.921875 C 193.246094 225.867188 193.382812 225.820312 193.507812 225.765625 C 193.628906 225.707031 193.734375 225.648438 193.824219 225.59375 C 194.003906 225.492188 194.117188 225.398438 194.128906 225.355469 C 194.914062 225.34375 195.242188 225.390625 195.300781 225.46875 C 195.355469 225.558594 195.152344 225.683594 194.867188 225.796875 C 194.3125 226.035156 193.472656 226.273438 193.960938 226.230469 L 195.265625 226.023438 L 194.957031 225.980469 C 195.46875 225.773438 195.730469 225.570312 196.117188 225.410156 C 196.308594 225.332031 196.527344 225.253906 196.808594 225.183594 C 197.09375 225.105469 197.457031 225.035156 197.933594 224.96875 C 198.546875 224.945312 198.714844 225.015625 198.796875 225.09375 C 198.875 225.171875 198.863281 225.265625 199.101562 225.230469 C 199.113281 225.273438 199.273438 225.273438 199.828125 225.105469 C 200.757812 224.933594 201.691406 224.753906 202.621094 224.535156 C 202.203125 224.445312 201.792969 224.355469 201.382812 224.253906 C 201.964844 223.96875 202.609375 223.820312 202.929688 223.707031 C 203.085938 223.648438 203.167969 223.59375 203.121094 223.535156 C 203.074219 223.480469 202.894531 223.421875 202.542969 223.34375 C 202.667969 223.378906 202.824219 223.398438 202.996094 223.398438 C 203.167969 223.398438 203.371094 223.398438 203.574219 223.378906 C 203.996094 223.34375 204.496094 223.273438 205.027344 223.148438 C 205.5625 223.035156 206.152344 222.898438 206.742188 222.71875 C 207.039062 222.628906 207.34375 222.535156 207.640625 222.445312 C 207.933594 222.34375 208.242188 222.242188 208.535156 222.140625 C 209.738281 221.71875 210.886719 221.242188 211.816406 220.855469 C 212.28125 220.660156 212.679688 220.480469 213.007812 220.355469 C 213.335938 220.230469 213.585938 220.140625 213.734375 220.117188 C 214.085938 219.832031 214.449219 219.582031 214.824219 219.34375 C 215.199219 219.09375 215.585938 218.867188 215.984375 218.640625 C 216.777344 218.183594 217.640625 217.753906 218.582031 217.242188 C 218.320312 217.320312 218.046875 217.253906 218.039062 217.070312 C 218.039062 216.980469 218.09375 216.855469 218.265625 216.707031 C 218.34375 216.628906 218.457031 216.546875 218.59375 216.457031 C 218.730469 216.367188 218.898438 216.265625 219.105469 216.160156 C 219.125 216.523438 219.332031 216.640625 219.660156 216.59375 C 219.988281 216.546875 220.445312 216.355469 220.941406 216.09375 C 221.191406 215.96875 221.453125 215.832031 221.726562 215.695312 C 222 215.558594 222.261719 215.410156 222.53125 215.285156 C 222.792969 215.160156 223.066406 215.058594 223.316406 214.96875 C 223.566406 214.890625 223.804688 214.832031 224.03125 214.820312 C 223.667969 214.878906 223.746094 214.71875 224.042969 214.445312 C 224.191406 214.308594 224.394531 214.148438 224.609375 213.96875 C 224.824219 213.785156 225.074219 213.59375 225.3125 213.398438 C 225.789062 213.015625 226.222656 212.617188 226.414062 212.367188 C 226.597656 212.105469 226.527344 211.992188 225.984375 212.128906 C 226.617188 211.707031 226.722656 211.785156 226.789062 211.921875 C 226.859375 212.046875 226.914062 212.242188 227.46875 211.992188 C 228.753906 210.648438 230.34375 209.390625 231.976562 208.003906 C 233.613281 206.617188 235.292969 205.082031 236.710938 203.285156 C 236.621094 203.117188 235.9375 203.523438 236.371094 202.617188 C 237.109375 202.195312 237.835938 201.753906 238.5625 201.296875 C 238.800781 200.910156 238.730469 200.59375 238.789062 200.253906 C 238.8125 200.082031 238.867188 199.910156 239.015625 199.71875 C 239.152344 199.523438 239.378906 199.308594 239.742188 199.070312 C 239.492188 199.171875 239.105469 199.320312 239.414062 198.808594 C 240.886719 197.140625 242.171875 195.273438 243.304688 193.308594 C 244.441406 191.34375 245.429688 189.285156 246.3125 187.183594 C 247.210938 185.082031 248.003906 182.945312 248.800781 180.796875 C 249.59375 178.648438 250.378906 176.503906 251.230469 174.355469 C 250.640625 175.492188 250.785156 174.671875 250.96875 173.753906 C 250.765625 174.332031 250.558594 173.648438 250.300781 173.71875 C 250.527344 173.128906 250.753906 172.523438 250.96875 171.921875 L 251.285156 171.015625 C 251.390625 170.707031 251.503906 170.410156 251.59375 170.105469 C 251.457031 169.910156 251.421875 169.558594 251.433594 169.140625 C 251.433594 169.035156 251.445312 168.921875 251.457031 168.808594 C 251.46875 168.695312 251.46875 168.582031 251.480469 168.457031 C 251.503906 168.21875 251.523438 167.980469 251.546875 167.730469 C 251.570312 167.492188 251.605469 167.242188 251.617188 167.015625 C 251.628906 166.785156 251.636719 166.570312 251.636719 166.378906 C 251.628906 165.992188 251.582031 165.707031 251.433594 165.59375 L 251.445312 166.785156 C 251.148438 165.957031 250.695312 166.480469 250.195312 167.148438 C 249.6875 167.820312 249.128906 168.617188 248.675781 168.445312 C 248.824219 168.898438 248.777344 169.390625 248.652344 169.921875 C 248.515625 170.457031 248.265625 171.023438 248.039062 171.617188 C 247.914062 171.910156 247.789062 172.21875 247.6875 172.535156 C 247.632812 172.695312 247.585938 172.855469 247.539062 173.015625 C 247.496094 173.171875 247.449219 173.332031 247.402344 173.503906 C 247.324219 173.832031 247.269531 174.171875 247.257812 174.523438 C 247.234375 174.878906 247.246094 175.242188 247.3125 175.617188 C 246.984375 176.171875 247.144531 175.035156 246.859375 175.296875 C 246.972656 175.683594 247.007812 176.09375 246.917969 176.59375 C 246.871094 176.84375 246.800781 177.117188 246.710938 177.410156 C 246.621094 177.71875 246.484375 178.035156 246.335938 178.410156 L 246.292969 178.207031 C 246.210938 178.480469 246.144531 178.730469 246.074219 178.980469 C 245.996094 179.230469 245.917969 179.46875 245.847656 179.695312 C 245.769531 179.921875 245.703125 180.148438 245.621094 180.367188 C 245.554688 180.582031 245.464844 180.796875 245.382812 181.003906 C 245.304688 181.207031 245.222656 181.410156 245.144531 181.605469 C 245.066406 181.796875 244.984375 181.992188 244.894531 182.183594 C 244.726562 182.558594 244.554688 182.933594 244.382812 183.308594 C 243.65625 184.796875 242.839844 186.308594 241.601562 188.457031 L 242.183594 188.34375 C 241.921875 188.808594 241.71875 189.070312 241.546875 189.265625 C 241.375 189.457031 241.230469 189.59375 241.070312 189.785156 C 241.09375 190.492188 241.457031 189.84375 241.832031 189.171875 C 242.023438 188.84375 242.195312 188.492188 242.351562 188.320312 C 242.5 188.148438 242.625 188.148438 242.671875 188.480469 C 241.945312 188.910156 241.058594 190.582031 240.105469 192.140625 C 239.164062 193.707031 238.140625 195.160156 237.425781 195.242188 C 236.484375 196.582031 238.140625 195.148438 237.199219 196.492188 L 236.710938 196.671875 L 236.765625 197.230469 C 236.597656 197.433594 236.425781 197.605469 236.269531 197.742188 C 236.109375 197.878906 235.960938 197.96875 235.824219 198.046875 C 235.554688 198.183594 235.347656 198.207031 235.234375 198.148438 C 235.417969 197.957031 235.632812 197.523438 235.78125 197.285156 C 235.496094 197.515625 235.222656 197.820312 234.953125 198.160156 C 234.679688 198.503906 234.40625 198.867188 234.15625 199.230469 C 233.90625 199.582031 233.679688 199.910156 233.488281 200.171875 C 233.292969 200.433594 233.136719 200.628906 233.042969 200.695312 C 233.429688 200.332031 233.816406 199.980469 234.191406 199.617188 C 232.886719 201.421875 231.171875 203.230469 229.410156 204.945312 C 229.195312 205.160156 228.96875 205.378906 228.742188 205.582031 C 228.515625 205.796875 228.300781 206.003906 228.082031 206.21875 C 227.855469 206.421875 227.640625 206.628906 227.414062 206.832031 C 227.199219 207.035156 226.980469 207.242188 226.753906 207.445312 C 226.3125 207.84375 225.890625 208.253906 225.472656 208.648438 C 225.269531 208.84375 225.0625 209.046875 224.859375 209.242188 C 224.65625 209.433594 224.460938 209.628906 224.269531 209.820312 L 224.667969 209.796875 C 224.371094 210.09375 224.109375 210.332031 223.871094 210.535156 C 223.632812 210.730469 223.429688 210.898438 223.246094 211.035156 C 223.054688 211.171875 222.894531 211.285156 222.726562 211.378906 C 222.566406 211.46875 222.40625 211.558594 222.25 211.640625 C 221.613281 211.96875 220.941406 212.308594 219.457031 213.355469 L 219.535156 213.242188 C 219.285156 213.523438 218.96875 213.832031 218.59375 214.105469 C 218.410156 214.242188 218.207031 214.378906 218.003906 214.515625 C 217.902344 214.582031 217.796875 214.648438 217.683594 214.707031 C 217.582031 214.765625 217.46875 214.832031 217.355469 214.890625 C 217.695312 214.546875 217.253906 214.648438 216.84375 214.742188 C 216.4375 214.820312 216.0625 214.878906 216.515625 214.46875 C 216.335938 214.605469 216.175781 214.71875 216.015625 214.832031 C 215.867188 214.933594 215.734375 215.035156 215.609375 215.117188 C 215.359375 215.285156 215.175781 215.433594 215.027344 215.546875 C 214.734375 215.785156 214.585938 215.898438 214.484375 216.035156 C 214.382812 216.160156 214.324219 216.273438 214.175781 216.480469 C 214.03125 216.671875 213.804688 216.96875 213.335938 217.398438 L 212.679688 217.296875 C 212.382812 217.628906 212.226562 217.820312 211.941406 218.046875 C 211.65625 218.273438 211.25 218.535156 210.410156 218.921875 C 211.042969 218.492188 210.726562 218.480469 210.421875 218.433594 C 210.113281 218.398438 209.828125 218.332031 210.523438 217.832031 C 210.046875 217.921875 209.613281 218.035156 209.207031 218.148438 C 208.808594 218.261719 208.433594 218.398438 208.09375 218.535156 C 207.753906 218.671875 207.433594 218.808594 207.140625 218.957031 C 206.84375 219.09375 206.570312 219.242188 206.3125 219.367188 C 206.050781 219.492188 205.800781 219.617188 205.5625 219.71875 C 205.324219 219.820312 205.085938 219.910156 204.859375 219.957031 C 204.390625 220.070312 203.925781 220.082031 203.4375 219.921875 C 203.085938 220.273438 203.109375 220.433594 203.347656 220.480469 C 203.460938 220.503906 203.632812 220.492188 203.824219 220.46875 C 204.019531 220.433594 204.234375 220.386719 204.460938 220.332031 C 204.6875 220.273438 204.914062 220.207031 205.117188 220.148438 C 205.335938 220.09375 205.515625 220.023438 205.664062 219.980469 C 205.957031 219.886719 206.09375 219.855469 205.867188 219.992188 C 206.3125 220.023438 206.027344 220.308594 205.46875 220.628906 C 205.199219 220.785156 204.847656 220.945312 204.496094 221.082031 C 204.324219 221.148438 204.140625 221.207031 203.972656 221.261719 C 203.800781 221.308594 203.632812 221.355469 203.484375 221.378906 C 203.1875 221.457031 202.882812 221.445312 202.566406 221.410156 C 202.246094 221.378906 201.894531 221.285156 201.484375 221.230469 C 201.28125 221.195312 201.066406 221.171875 200.839844 221.148438 C 200.613281 221.128906 200.351562 221.117188 200.089844 221.117188 C 199.816406 221.117188 199.523438 221.128906 199.203125 221.160156 C 198.886719 221.195312 198.546875 221.242188 198.171875 221.308594 C 198.464844 221.253906 198.476562 221.171875 198.773438 221.128906 C 198.183594 221.105469 197.660156 221.308594 197.082031 221.457031 C 196.796875 221.535156 196.503906 221.617188 196.183594 221.660156 C 195.867188 221.695312 195.539062 221.707031 195.175781 221.648438 C 195.003906 221.832031 194.800781 221.933594 194.59375 221.992188 C 194.390625 222.046875 194.175781 222.082031 193.992188 222.105469 C 193.609375 222.160156 193.300781 222.230469 193.234375 222.628906 L 194.628906 222.378906 L 196.015625 222.09375 C 195.628906 222.195312 195.253906 222.34375 194.855469 222.515625 C 194.472656 222.671875 194.0625 222.832031 193.621094 222.992188 C 193.175781 223.148438 192.699219 223.261719 192.15625 223.332031 C 191.621094 223.410156 191.019531 223.410156 190.351562 223.355469 C 190.554688 223.183594 191.328125 222.933594 191.847656 222.773438 C 191.453125 222.695312 191.089844 222.753906 190.714844 222.808594 C 190.339844 222.867188 189.964844 222.933594 189.554688 222.832031 C 189.601562 222.628906 189.839844 222.523438 190.191406 222.433594 C 190.542969 222.355469 191.019531 222.308594 191.53125 222.261719 C 192.042969 222.207031 192.609375 222.148438 193.144531 222.070312 C 193.675781 221.96875 194.1875 221.84375 194.585938 221.636719 C 194.367188 221.582031 194.074219 221.605469 193.753906 221.671875 C 193.4375 221.730469 193.097656 221.832031 192.800781 221.890625 C 192.222656 222.011719 191.835938 222.058594 192.222656 221.605469 C 191.667969 222.195312 190.90625 222.207031 190.042969 222.195312 C 189.613281 222.183594 189.15625 222.160156 188.679688 222.195312 C 188.441406 222.21875 188.203125 222.242188 187.953125 222.296875 C 187.707031 222.34375 187.457031 222.421875 187.195312 222.523438 L 187.332031 222.058594 C 187 222.136719 186.332031 222.355469 185.730469 222.332031 L 186.820312 221.742188 C 186.398438 221.867188 185.992188 221.898438 185.59375 221.878906 C 185.183594 221.867188 184.800781 221.773438 184.402344 221.695312 C 184.207031 221.648438 184.015625 221.605469 183.8125 221.570312 C 183.617188 221.523438 183.425781 221.480469 183.234375 221.445312 C 182.847656 221.378906 182.449219 221.34375 182.050781 221.390625 C 183.710938 221.492188 183.890625 221.640625 183.824219 221.820312 C 183.765625 222.003906 183.449219 222.21875 184.152344 222.410156 C 183.628906 222.480469 183.199219 222.480469 182.847656 222.46875 C 182.484375 222.457031 182.199219 222.421875 181.960938 222.355469 C 181.472656 222.230469 181.179688 222.035156 180.871094 221.832031 C 180.566406 221.628906 180.234375 221.398438 179.714844 221.207031 C 179.179688 221.023438 178.453125 220.84375 177.316406 220.730469 C 177.625 220.753906 178.191406 220.890625 178.554688 221.046875 C 178.917969 221.207031 179.089844 221.367188 178.589844 221.410156 C 178.375 221.355469 178.148438 221.296875 177.910156 221.230469 C 177.671875 221.160156 177.441406 221.09375 177.214844 221.015625 C 176.773438 220.855469 176.375 220.671875 176.125 220.515625 C 174.628906 220.285156 174.71875 220.421875 175.023438 220.628906 C 175.332031 220.832031 175.84375 221.105469 175.171875 221.117188 C 174.71875 220.742188 174.332031 220.730469 173.902344 220.785156 C 173.6875 220.820312 173.449219 220.867188 173.1875 220.898438 C 173.050781 220.921875 172.914062 220.933594 172.765625 220.933594 C 172.617188 220.933594 172.460938 220.933594 172.289062 220.910156 L 172.390625 220.445312 C 171.972656 220.308594 171.640625 220.207031 171.382812 220.148438 C 171.121094 220.082031 170.925781 220.058594 170.769531 220.046875 C 170.460938 220.035156 170.324219 220.128906 170.199219 220.21875 C 170.074219 220.308594 169.960938 220.398438 169.703125 220.398438 C 169.441406 220.390625 169.019531 220.273438 168.28125 219.957031 L 169.746094 219.707031 C 169.214844 219.605469 168.667969 219.515625 168.125 219.398438 C 168.28125 219.265625 168.441406 219.128906 168.601562 218.992188 C 168.144531 218.957031 167.78125 218.898438 167.453125 218.84375 C 167.292969 218.808594 167.136719 218.785156 166.988281 218.742188 C 166.839844 218.707031 166.703125 218.660156 166.566406 218.617188 C 166.296875 218.523438 166.023438 218.410156 165.726562 218.285156 C 165.433594 218.148438 165.105469 217.992188 164.71875 217.796875 C 164.84375 218.023438 164.71875 218.207031 164.378906 218.265625 C 164.023438 218.320312 163.46875 218.242188 162.742188 217.945312 C 162.527344 217.785156 162.457031 217.683594 162.457031 217.628906 C 162.457031 217.570312 162.503906 217.535156 162.527344 217.515625 C 162.5625 217.457031 162.449219 217.378906 161.425781 216.96875 C 161.710938 216.933594 162.015625 216.890625 162.332031 216.945312 C 162.492188 216.980469 162.652344 217.023438 162.820312 217.128906 C 162.992188 217.21875 163.164062 217.355469 163.34375 217.546875 C 163.492188 217.445312 163.910156 217.457031 164.058594 217.355469 C 163.59375 216.992188 162.945312 216.71875 162.332031 216.457031 C 162.027344 216.332031 161.722656 216.230469 161.449219 216.128906 C 161.175781 216.023438 160.9375 215.933594 160.765625 215.84375 C 161.039062 215.992188 161.347656 216.160156 161.492188 216.308594 C 160.972656 216.183594 160.449219 216.058594 159.925781 215.933594 C 159.40625 215.796875 158.882812 215.660156 158.359375 215.515625 C 157.996094 215.117188 158.417969 215.183594 158.828125 215.242188 C 158.53125 215.117188 158.257812 215.046875 157.953125 214.957031 C 157.644531 214.867188 157.304688 214.765625 156.886719 214.546875 C 157.28125 214.332031 157.417969 213.96875 158.679688 214.421875 C 158.203125 214.253906 157.726562 214.09375 157.257812 213.898438 C 156.792969 213.71875 156.316406 213.535156 155.851562 213.34375 C 155.804688 213.21875 155.535156 212.921875 155.328125 212.671875 C 155.113281 212.421875 154.976562 212.195312 155.183594 212.242188 C 154.863281 211.96875 154.46875 211.742188 154.011719 211.523438 C 153.570312 211.296875 153.082031 211.09375 152.582031 210.855469 C 151.59375 210.386719 150.539062 209.855469 149.757812 209.058594 C 149.621094 209.046875 149.394531 208.96875 148.984375 208.71875 C 148.585938 208.378906 148.222656 208.023438 147.871094 207.671875 C 147.519531 207.308594 147.167969 206.945312 146.804688 206.59375 C 146.441406 206.230469 146.054688 205.878906 145.636719 205.523438 C 145.417969 205.34375 145.203125 205.171875 144.964844 205.003906 C 144.851562 204.910156 144.726562 204.832031 144.601562 204.753906 C 144.476562 204.671875 144.351562 204.582031 144.214844 204.503906 L 143.957031 203.761719 L 143.832031 203.398438 L 143.71875 203.023438 C 142.992188 202.398438 143.160156 202.878906 143.21875 203.261719 C 143.273438 203.648438 143.207031 203.933594 141.992188 202.855469 C 141.128906 202.09375 141.09375 201.832031 141.21875 201.671875 C 141.34375 201.511719 141.640625 201.46875 141.445312 201.105469 C 141.195312 200.957031 140.890625 200.773438 140.5625 200.558594 C 140.230469 200.34375 139.890625 200.09375 139.539062 199.796875 C 138.847656 199.207031 138.175781 198.421875 137.78125 197.410156 C 138.042969 197.648438 138.234375 197.886719 138.414062 198.128906 C 138.609375 198.515625 138.789062 198.753906 139.007812 198.992188 Z M 127.746094 178.082031 C 127.859375 178.285156 128.050781 178.59375 128.199219 178.898438 C 128.359375 179.195312 128.460938 179.492188 128.378906 179.695312 C 128.039062 179.523438 127.902344 179.320312 127.835938 179.070312 C 127.769531 178.796875 127.789062 178.480469 127.746094 178.082031 Z M 126.984375 141.832031 C 127.03125 142.21875 126.804688 142.707031 126.449219 143.253906 C 126.554688 142.808594 126.699219 142.332031 126.984375 141.832031 Z M 211.351562 99.398438 C 211.328125 99.398438 211.316406 99.398438 211.292969 99.398438 C 211.054688 99.253906 210.898438 99.160156 210.804688 99.105469 C 210.714844 99.046875 210.679688 99.035156 210.714844 99.046875 C 210.761719 99.070312 211.011719 99.207031 211.351562 99.398438 Z M 213.394531 100.480469 C 213.632812 100.515625 213.644531 100.445312 213.585938 100.34375 C 213.394531 100.390625 212.917969 100.183594 212.382812 99.921875 C 212.484375 100.105469 212.722656 100.308594 213.394531 100.480469 Z M 199.285156 225.09375 L 198.820312 225.058594 C 199.785156 224.730469 199.535156 224.898438 199.285156 225.09375 Z M 199.285156 225.09375 " fill-opacity="1" fill-rule="nonzero"/></g><path fill="#000000" d="M 126.496094 146.035156 C 126.382812 146.148438 126.292969 146.160156 126.199219 146.171875 C 126.234375 146.367188 126.324219 146.390625 126.496094 146.035156 Z M 126.496094 146.035156 " fill-opacity="1" fill-rule="nonzero"/><path fill="#000000" d="M 149.722656 209.140625 C 149.734375 209.160156 149.757812 209.171875 149.777344 209.183594 C 149.824219 209.183594 149.859375 209.171875 149.890625 209.160156 Z M 149.722656 209.140625 " fill-opacity="1" fill-rule="nonzero"/><path fill="#000000" d="M 179.125 99.34375 C 178.894531 99.332031 178.726562 99.320312 178.578125 99.296875 C 178.429688 99.273438 178.328125 99.253906 178.238281 99.21875 C 178.238281 99.273438 178.28125 99.320312 178.417969 99.34375 C 178.554688 99.367188 178.78125 99.367188 179.125 99.34375 Z M 179.125 99.34375 " fill-opacity="1" fill-rule="nonzero"/><path fill="#000000" d="M 224.449219 105.765625 C 224.019531 105.515625 223.589844 105.273438 223.144531 105.035156 C 223.757812 105.410156 223.917969 105.640625 224.167969 105.910156 C 224.210938 105.796875 224.066406 105.503906 224.449219 105.765625 Z M 224.449219 105.765625 " fill-opacity="1" fill-rule="nonzero"/><path fill="#000000" d="M 232.226562 116.128906 C 232.410156 116.242188 232.535156 116.433594 232.726562 116.546875 L 232.839844 116.355469 C 232.214844 115.730469 231.660156 115.410156 232.226562 116.128906 Z M 232.226562 116.128906 " fill-opacity="1" fill-rule="nonzero"/><path fill="#000000" d="M 224.667969 107.832031 C 224.597656 108.023438 224.769531 108.230469 225.050781 108.457031 C 225.199219 108.570312 225.382812 108.683594 225.574219 108.808594 C 225.769531 108.933594 225.972656 109.070312 226.1875 109.207031 C 226.140625 109.171875 226.085938 109.140625 226.039062 109.09375 C 226.324219 108.96875 226.234375 108.773438 225.9375 108.546875 C 225.644531 108.320312 225.15625 108.082031 224.667969 107.832031 Z M 224.667969 107.832031 " fill-opacity="1" fill-rule="nonzero"/><path fill="#000000" d="M 226.378906 109.34375 C 226.640625 109.523438 226.902344 109.707031 227.128906 109.910156 C 227.355469 109.808594 226.859375 109.628906 226.378906 109.34375 Z M 226.378906 109.34375 " fill-opacity="1" fill-rule="nonzero"/><path fill="#000000" d="M 216.140625 101.492188 C 216.539062 101.796875 216.640625 101.171875 216.824219 101.445312 C 217.1875 101.34375 216.378906 101.117188 215.800781 101.023438 C 215.515625 100.980469 215.277344 100.992188 215.277344 101.046875 C 215.289062 101.117188 215.515625 101.242188 216.140625 101.492188 Z M 216.140625 101.492188 " fill-opacity="1" fill-rule="nonzero"/><path fill="#000000" d="M 224.554688 109.378906 L 224.554688 108.765625 L 223.859375 108.753906 Z M 224.554688 109.378906 " fill-opacity="1" fill-rule="nonzero"/><path fill="#000000" d="M 218.117188 104.773438 C 218.332031 104.921875 218.558594 105.070312 218.773438 105.230469 L 219.433594 105.695312 C 219.457031 105.617188 219.648438 105.671875 219.886719 105.773438 C 219.46875 105.515625 219.035156 105.230469 218.707031 105.023438 C 218.367188 104.820312 218.140625 104.707031 218.117188 104.773438 Z M 218.117188 104.773438 " fill-opacity="1" fill-rule="nonzero"/><path fill="#000000" d="M 219.886719 105.773438 C 220.320312 106.046875 220.738281 106.308594 221.023438 106.390625 C 220.796875 106.242188 220.273438 105.933594 219.886719 105.773438 Z M 219.886719 105.773438 " fill-opacity="1" fill-rule="nonzero"/><path fill="#000000" d="M 222.691406 108.230469 C 222.578125 108.117188 222.476562 107.992188 222.363281 107.878906 L 221.441406 107.230469 L 222.066406 107.730469 L 222.386719 107.980469 Z M 222.691406 108.230469 " fill-opacity="1" fill-rule="nonzero"/><path fill="#000000" d="M 202.167969 98.355469 L 201.304688 98.21875 C 201.007812 98.171875 200.726562 98.140625 200.429688 98.105469 C 200.226562 98.230469 200.667969 98.433594 201.316406 98.515625 C 201.734375 98.480469 202.382812 98.570312 202.167969 98.355469 Z M 202.167969 98.355469 " fill-opacity="1" fill-rule="nonzero"/><path fill="#000000" d="M 206.820312 101.105469 C 206.414062 100.867188 206.414062 100.753906 206.21875 100.515625 L 205.980469 101.082031 Z M 206.820312 101.105469 " fill-opacity="1" fill-rule="nonzero"/><path fill="#000000" d="M 201.984375 99.84375 C 201.882812 99.898438 201.246094 99.878906 200.90625 99.890625 C 200.566406 99.910156 200.519531 99.957031 201.566406 100.195312 C 201.667969 100.140625 202.144531 100.171875 202.40625 100.160156 C 202.542969 100.160156 202.609375 100.140625 202.566406 100.09375 C 202.542969 100.070312 202.484375 100.035156 202.394531 99.992188 C 202.316406 99.957031 202.179688 99.910156 201.984375 99.84375 Z M 201.984375 99.84375 " fill-opacity="1" fill-rule="nonzero"/><path fill="#000000" d="M 176.261719 98.070312 L 176.695312 97.992188 L 176.476562 97.015625 Z M 176.261719 98.070312 " fill-opacity="1" fill-rule="nonzero"/><path fill="#000000" d="M 155.964844 107.945312 C 156.191406 107.84375 156.363281 107.765625 156.5 107.683594 C 156.636719 107.617188 156.726562 107.546875 156.78125 107.492188 C 156.90625 107.378906 156.917969 107.285156 156.917969 107.195312 C 156.929688 107.023438 156.917969 106.867188 157.78125 106.558594 C 157.929688 106.34375 157.578125 106.457031 157.226562 106.59375 C 156.875 106.71875 156.53125 106.855469 156.691406 106.648438 C 156.453125 106.855469 156.25 107.015625 156.066406 107.148438 C 155.898438 107.285156 155.761719 107.398438 155.671875 107.492188 C 155.511719 107.683594 155.558594 107.796875 155.964844 107.945312 Z M 155.964844 107.945312 " fill-opacity="1" fill-rule="nonzero"/><path fill="#000000" d="M 156.691406 106.640625 C 156.839844 106.515625 157 106.367188 157.15625 106.207031 C 156.886719 106.433594 156.761719 106.558594 156.691406 106.640625 Z M 156.691406 106.640625 " fill-opacity="1" fill-rule="nonzero"/><path fill="#000000" d="M 252.445312 167.730469 C 252.570312 167.285156 252.671875 166.832031 252.785156 166.378906 L 252.375 167.230469 C 252.398438 167.398438 252.421875 167.558594 252.445312 167.730469 Z M 252.445312 167.730469 " fill-opacity="1" fill-rule="nonzero"/><path fill="#000000" d="M 251.933594 165.046875 L 252.59375 164.765625 L 252.070312 163.910156 C 252.070312 164.21875 252.09375 164.820312 251.933594 165.046875 Z M 251.933594 165.046875 " fill-opacity="1" fill-rule="nonzero"/><path fill="#000000" d="M 128.085938 174.34375 L 127.914062 174.285156 C 127.800781 174.515625 127.859375 174.796875 127.972656 175.390625 Z M 128.085938 174.34375 " fill-opacity="1" fill-rule="nonzero"/><path fill="#000000" d="M 133.808594 190.390625 L 133.683594 190.128906 L 133.445312 190.898438 Z M 133.808594 190.390625 " fill-opacity="1" fill-rule="nonzero"/><path fill="#000000" d="M 142.808594 201.503906 C 142.628906 201.273438 142.390625 201.070312 142.152344 200.855469 C 141.921875 200.640625 141.695312 200.410156 141.503906 200.183594 C 142.421875 201.070312 142.398438 202.105469 142.808594 201.503906 Z M 142.808594 201.503906 " fill-opacity="1" fill-rule="nonzero"/><g clip-path="url(#afaaff8acc)"><path fill="#000000" d="M 296.101562 145.046875 C 290.109375 145.046875 290.789062 151.570312 272.117188 151.570312 C 255.496094 151.570312 235.824219 148.71875 220.953125 148.71875 C 212.542969 148.71875 205.832031 149.820312 200.566406 151.640625 C 200.464844 144.832031 198.160156 139.023438 193.824219 139.023438 C 189.542969 139.023438 186.273438 144.21875 184.253906 150.332031 C 184.332031 148.367188 184.425781 146.707031 184.503906 145.457031 C 184.6875 142.855469 182.949219 141.492188 181.269531 141.285156 C 181.269531 141.285156 181.269531 141.285156 181.269531 141.273438 C 181.132812 141.265625 181.007812 141.253906 180.871094 141.253906 C 179.609375 141.242188 178.453125 141.890625 178.261719 143.183594 C 178.113281 144.183594 177.976562 145.253906 177.851562 146.390625 C 175.546875 149.296875 170.394531 154.390625 156.5 154.390625 C 138.835938 154.390625 110.523438 148.84375 96.199219 148.84375 C 86.152344 148.84375 75.765625 150.308594 75.765625 156.230469 C 75.765625 158.023438 77.183594 158.96875 78.910156 158.96875 C 84.902344 158.96875 84.222656 152.445312 102.894531 152.445312 C 119.515625 152.445312 139.1875 156.753906 154.058594 156.753906 C 167.066406 156.753906 174.171875 153.058594 177.546875 149.707031 C 176.148438 166.730469 176.988281 193.128906 179.453125 202.355469 C 180.453125 206.09375 184.1875 204.765625 183.992188 200.445312 C 183.527344 189.707031 183.617188 174.070312 183.902344 161.785156 C 184.957031 149.148438 190.203125 142.308594 192.234375 142.308594 C 193.574219 142.308594 194.210938 147.230469 194.210938 150.410156 C 194.210938 151.933594 194.164062 153.332031 194.085938 154.628906 C 187.308594 158.753906 184.527344 164.433594 184.527344 169.671875 C 184.527344 172.683594 186.480469 174.023438 188.125 174.023438 C 194.855469 174.023438 199.886719 163.890625 200.511719 154.140625 C 205.085938 152.273438 211.089844 151.070312 218.820312 151.070312 C 236.484375 151.070312 264.476562 155.160156 278.816406 155.160156 C 288.859375 155.160156 299.246094 153.695312 299.246094 147.773438 C 299.246094 145.992188 297.828125 145.046875 296.101562 145.046875 Z M 188.589844 169.765625 C 188.183594 169.765625 187.945312 169.421875 187.945312 168.84375 C 187.945312 165.605469 189.625 161.523438 193.753906 158.09375 C 192.496094 167.910156 188.929688 169.765625 188.589844 169.765625 Z M 188.589844 169.765625 " fill-opacity="1" fill-rule="nonzero"/></g></svg>